<?xml version="1.0" encoding="utf-8"?>
<svg viewBox="0 0 256 256" xmlns="http://www.w3.org/2000/svg">
  <path opacity="1.000000" stroke="none" d="&#10;M94.848228,211.030655 &#10;&#9;C93.735352,209.861679 92.622482,208.692719 91.147652,207.146667 &#10;&#9;C88.186859,204.181747 85.588036,201.593933 82.894051,198.683838 &#10;&#9;C61.915791,177.548294 41.032692,156.735031 20.073799,135.589966 &#10;&#9;C18.694967,132.890610 16.750463,130.434509 20.923954,129.237183 &#10;&#9;C21.199669,131.089905 20.938910,132.976593 21.760014,133.880264 &#10;&#9;C26.158625,138.721146 30.826963,143.316956 35.327194,147.920822 &#10;&#9;C36.894154,146.738129 38.090591,145.835083 39.615971,144.960938 &#10;&#9;C44.935680,149.810822 50.026573,154.533508 54.887051,159.482483 &#10;&#9;C59.138527,163.811386 63.130913,168.394745 66.842667,172.929901 &#10;&#9;C61.976894,174.336548 63.978409,176.030228 66.028740,178.059677 &#10;&#9;C70.605301,182.589676 74.952621,187.351852 79.545753,191.864273 &#10;&#9;C82.160980,194.433563 85.076385,196.697327 88.757126,199.876450 &#10;&#9;C88.365593,196.702835 88.149986,194.955200 88.261581,193.253128 &#10;&#9;C95.303383,199.941284 102.166229,206.443039 108.668427,213.287399 &#10;&#9;C111.802895,216.586807 113.949265,216.680405 117.178841,213.361603 &#10;&#9;C125.258224,205.058929 133.674759,197.084305 142.282928,188.958481 &#10;&#9;C143.074951,188.301880 143.540039,187.664856 144.209595,186.797028 &#10;&#9;C145.270905,185.707748 146.127716,184.849258 147.332764,183.973495 &#10;&#9;C149.442078,181.946121 151.203171,179.935989 153.082123,177.660980 &#10;&#9;C153.799484,176.929428 154.398956,176.462784 155.344650,175.974472 &#10;&#9;C157.786270,173.619781 159.881683,171.286743 162.079330,168.729248 &#10;&#9;C162.385849,168.222168 162.660309,168.054108 163.350845,167.979675 &#10;&#9;C165.128403,166.300705 166.560059,164.642685 168.073120,162.755463 &#10;&#9;C168.339966,162.239700 168.597626,162.052673 169.279297,161.953766 &#10;&#9;C171.753220,159.625183 173.875366,157.307983 176.192291,154.757538 &#10;&#9;C177.237640,153.673462 178.088196,152.822617 179.296112,151.953720 &#10;&#9;C181.917999,150.112579 186.015778,148.967148 181.928345,144.800888 &#10;&#9;C176.032379,139.066696 170.440582,133.462189 164.886200,127.820824 &#10;&#9;C160.167191,123.027893 155.491364,118.192444 150.871704,113.026688 &#10;&#9;C150.973816,112.442329 151.000671,112.207092 151.370941,111.945435 &#10;&#9;C156.605728,110.355682 150.829559,107.620476 152.725952,105.764961 &#10;&#9;C158.627457,111.257820 164.146454,116.735870 169.788696,122.083923 &#10;&#9;C177.665405,129.549896 185.634125,136.918777 193.602295,144.342102 &#10;&#9;C193.641098,144.355011 193.656372,144.435364 193.696930,144.775177 &#10;&#9;C192.943939,146.799118 192.533005,148.861511 191.298752,150.109955 &#10;&#9;C175.774872,165.812164 160.112671,181.377487 144.537094,197.028824 &#10;&#9;C141.642563,199.937424 138.974136,203.071030 135.890564,206.229141 &#10;&#9;C130.627899,211.499619 125.676018,216.641754 120.408043,221.881622 &#10;&#9;C119.755989,222.969925 119.420021,223.960480 118.734161,224.920746 &#10;&#9;C118.558121,222.406128 118.731979,219.921783 118.843109,218.333755 &#10;&#9;C115.258293,217.945740 111.371002,217.397995 107.466217,217.205658 &#10;&#9;C106.650162,217.165451 105.769485,218.436951 104.583603,219.042175 &#10;&#9;C101.115150,216.330444 97.981689,213.680542 94.848228,211.030655 &#10;z" style=""/>
  <path opacity="1.000000" stroke="none" d="&#10;M153.249924,45.790215 &#10;&#9;C153.542664,45.916008 153.834229,46.044502 154.490067,46.523666 &#10;&#9;C156.832672,48.701168 158.809830,50.530693 160.786987,52.360222 &#10;&#9;C160.939346,52.879742 161.091705,53.399258 161.104004,54.525578 &#10;&#9;C159.968704,56.093140 158.973450,57.053898 157.682465,57.864574 &#10;&#9;C154.302505,54.696873 151.217346,51.680206 148.134277,48.661392 &#10;&#9;C143.951447,44.565716 140.446274,44.520153 136.450073,48.588161 &#10;&#9;C127.681969,57.513802 118.923874,66.449394 110.188560,75.407127 &#10;&#9;C99.118896,86.758659 88.060631,98.121399 77.027008,109.507957 &#10;&#9;C70.094086,116.662621 68.580872,115.047142 75.694031,124.022125 &#10;&#9;C74.535797,124.378075 73.711266,124.704689 72.610802,124.903572 &#10;&#9;C71.582970,124.490707 70.831085,124.205582 70.014664,123.577003 &#10;&#9;C68.243034,122.189079 66.535942,121.144608 64.559868,119.948822 &#10;&#9;C63.481430,118.867043 62.671986,117.936577 61.975204,116.765167 &#10;&#9;C62.055599,116.349846 62.023327,116.175484 62.270882,115.858688 &#10;&#9;C63.447948,114.864616 64.345192,114.012978 65.591461,113.147690 &#10;&#9;C67.514732,111.294609 69.088966,109.455177 70.890656,107.390038 &#10;&#9;C72.625175,105.648987 74.132256,104.133636 76.015984,102.709808 &#10;&#9;C77.131126,101.765701 77.869621,100.730087 78.644592,99.683708 &#10;&#9;C78.681076,99.672943 78.710472,99.602768 79.074753,99.697670 &#10;&#9;C80.514694,98.421822 81.590355,97.051071 82.921371,95.476776 &#10;&#9;C85.346481,93.071022 87.516251,90.868797 90.051048,88.747086 &#10;&#9;C92.151337,86.755630 93.886597,84.683655 95.797073,82.390717 &#10;&#9;C96.534332,81.672775 97.096352,81.175819 98.020065,80.761612 &#10;&#9;C100.479088,78.446419 102.576431,76.048477 104.794121,73.407059 &#10;&#9;C105.295822,72.790794 105.677170,72.417992 106.419891,72.061768 &#10;&#9;C108.735542,69.928375 110.689827,67.778412 112.721634,65.464874 &#10;&#9;C112.799149,65.301308 113.031189,65.023445 113.400536,65.036636 &#10;&#9;C114.857071,63.713921 115.944252,62.378017 117.197662,60.749542 &#10;&#9;C122.935654,54.687614 128.507416,48.918259 134.338394,43.171165 &#10;&#9;C134.767990,43.160049 134.938400,43.126678 135.467896,43.080795 &#10;&#9;C138.683365,41.940956 138.894226,40.544735 136.126984,38.583149 &#10;&#9;C135.858475,37.928364 135.717804,37.549240 135.918304,36.988457 &#10;&#9;C137.869446,36.175720 139.479401,35.544636 141.301254,34.958878 &#10;&#9;C141.513153,35.004204 141.943283,35.056999 142.024384,35.396744 &#10;&#9;C142.874924,36.025719 143.644363,36.314945 144.413788,36.604172 &#10;&#9;C145.009247,37.068474 145.604706,37.532772 146.471924,38.326706 &#10;&#9;C146.790619,38.825130 146.837555,38.993919 146.898239,39.518875 &#10;&#9;C149.024643,41.846764 151.137283,43.818489 153.249924,45.790215 &#10;z" style=""/>
  <path opacity="1.000000" stroke="none" d="&#10;M192.569366,179.678955 &#10;&#9;C191.750305,180.421890 190.931244,181.164825 189.769608,181.928162 &#10;&#9;C189.427017,181.948578 189.131409,181.893387 188.967850,181.714066 &#10;&#9;C187.976028,182.426605 187.147781,183.318481 186.290558,184.236298 &#10;&#9;C186.261566,184.262222 186.210159,184.320618 185.853149,184.248260 &#10;&#9;C183.289444,186.732895 181.082718,189.289871 178.919403,191.899628 &#10;&#9;C178.962799,191.952393 178.848709,191.877167 178.525055,191.890198 &#10;&#9;C177.473450,192.273972 176.745514,192.644714 175.730072,193.042694 &#10;&#9;C175.219772,193.933182 174.996948,194.796448 174.661804,195.940475 &#10;&#9;C174.026108,196.476883 173.502747,196.732529 172.717361,196.804092 &#10;&#9;C171.645004,195.095657 170.834671,193.571289 170.105972,191.807800 &#10;&#9;C170.458817,191.378937 170.730026,191.189194 171.374634,191.003204 &#10;&#9;C173.160217,189.330399 174.572388,187.653824 176.139984,185.684464 &#10;&#9;C180.544556,181.265549 184.793732,177.139435 189.261444,172.911407 &#10;&#9;C189.754227,172.612534 189.929077,172.349487 190.245667,171.795013 &#10;&#9;C196.656387,165.378265 202.826004,159.186890 209.364746,152.998871 &#10;&#9;C211.502609,151.008316 213.271362,149.014389 215.404663,147.012909 &#10;&#9;C216.693329,146.779648 217.617447,146.553955 218.541565,146.328247 &#10;&#9;C218.519043,146.030518 218.496521,145.732803 218.474014,145.435074 &#10;&#9;C217.325226,145.286331 216.176453,145.137604 214.737793,144.976562 &#10;&#9;C214.064224,144.947540 213.680542,144.930862 213.062988,144.660202 &#10;&#9;C208.662872,140.255646 204.496628,136.105057 200.633560,131.930328 &#10;&#9;C201.993622,131.244125 203.050522,130.582062 204.440918,129.977890 &#10;&#9;C208.467880,133.470032 212.107513,136.964691 215.872528,140.318588 &#10;&#9;C218.673706,142.813889 221.364853,143.345016 223.565521,139.106598 &#10;&#9;C224.973419,137.725235 226.073074,136.443939 227.453644,135.100372 &#10;&#9;C228.177032,134.699142 228.619522,134.360214 229.445892,134.016159 &#10;&#9;C230.883987,134.993912 231.938202,135.976761 233.052460,137.190247 &#10;&#9;C233.209305,137.762222 233.431961,137.965714 233.780472,138.031387 &#10;&#9;C233.780472,138.031387 234.099976,138.065384 234.005585,138.182404 &#10;&#9;C233.849991,138.482407 233.788773,138.665390 233.727570,138.848389 &#10;&#9;C233.376266,139.190491 233.024963,139.532578 232.302887,140.214569 &#10;&#9;C230.941696,141.559128 229.951294,142.563812 228.960892,143.568481 &#10;&#9;C228.596313,143.561829 228.231750,143.555176 227.396545,143.226868 &#10;&#9;C226.346024,143.780853 225.766129,144.656509 225.186203,145.532166 &#10;&#9;C223.922852,147.192490 222.659500,148.852814 220.817810,150.698074 &#10;&#9;C219.463531,151.554932 218.687607,152.226852 217.658249,153.093628 &#10;&#9;C216.783890,154.363434 216.162979,155.438385 215.542053,156.513336 &#10;&#9;C212.033249,160.040543 208.524445,163.567764 204.484833,167.387497 &#10;&#9;C202.939560,168.427628 201.925095,169.175262 200.551910,169.940674 &#10;&#9;C198.100952,172.273529 196.008713,174.588638 193.653992,177.092636 &#10;&#9;C193.117477,178.080658 192.843414,178.879807 192.569366,179.678955 &#10;z" style=""/>
  <path opacity="1.000000" stroke="none" d="&#10;M232.992432,136.959610 &#10;&#9;C231.938202,135.976761 230.883987,134.993912 229.436646,133.614929 &#10;&#9;C227.986206,130.938568 227.446854,128.151398 225.789703,126.458237 &#10;&#9;C212.429535,112.807625 198.840454,99.381355 185.381348,85.826920 &#10;&#9;C184.030029,84.465996 183.077179,82.709389 181.962997,80.773880 &#10;&#9;C182.686539,79.223274 183.386475,78.035210 184.086411,76.847145 &#10;&#9;C184.452957,76.909966 184.819519,76.972794 185.531189,77.416924 &#10;&#9;C187.222488,78.923096 188.568680,80.047958 189.914886,81.172821 &#10;&#9;C189.914886,81.172821 190.114838,81.386879 190.359894,81.702011 &#10;&#9;C191.274368,82.540428 191.943802,83.063705 192.613220,83.586983 &#10;&#9;C192.613220,83.586983 192.617294,83.881699 192.814789,84.313660 &#10;&#9;C195.533264,87.035912 198.054245,89.326202 200.575211,91.616501 &#10;&#9;C200.960907,92.277641 201.346603,92.938782 202.051300,94.015511 &#10;&#9;C203.548721,95.349495 204.727158,96.267899 205.905609,97.186302 &#10;&#9;C205.905609,97.186302 206.100739,97.398613 206.323654,97.742821 &#10;&#9;C215.507477,106.863220 224.468369,115.639412 233.429260,124.415604 &#10;&#9;C233.429260,124.415611 233.530350,124.464363 233.597092,124.822235 &#10;&#9;C234.729370,126.528603 235.794891,127.877106 236.879608,129.625900 &#10;&#9;C236.909973,131.638824 236.921158,133.251465 236.932327,134.864105 &#10;&#9;C236.423798,135.382507 235.915283,135.900894 235.127960,136.568848 &#10;&#9;C234.849182,136.718399 234.927231,136.897995 234.927231,136.897995 &#10;&#9;C234.927231,136.897995 234.607712,137.165833 234.123505,137.126846 &#10;&#9;C233.423691,137.045105 233.208054,137.002350 232.992432,136.959610 &#10;z" style=""/>
  <path opacity="1.000000" stroke="none" d="&#10;M28.932949,117.935471 &#10;&#9;C30.058090,116.352516 30.984472,114.571037 32.337864,113.216064 &#10;&#9;C56.986370,88.538780 81.672012,63.898506 106.387924,39.288696 &#10;&#9;C110.935799,34.760334 115.650589,30.399603 120.664970,25.991520 &#10;&#9;C121.041603,26.021544 121.140343,26.379610 121.119865,26.651711 &#10;&#9;C121.093529,27.291819 121.087677,27.659826 120.916115,28.324154 &#10;&#9;C117.790810,31.667658 114.831215,34.714844 111.558533,37.849480 &#10;&#9;C110.214569,38.980015 109.183693,40.023090 107.839508,41.190369 &#10;&#9;C96.029839,52.947464 84.533485,64.580368 72.822098,76.256279 &#10;&#9;C72.326981,76.464966 72.192528,76.710480 71.905113,77.166672 &#10;&#9;C70.760010,78.261009 69.913521,79.224495 68.784698,80.254349 &#10;&#9;C68.000244,80.879410 67.498123,81.438118 66.697571,82.142982 &#10;&#9;C62.902878,86.127251 59.406609,89.965370 55.572689,93.868866 &#10;&#9;C47.845947,101.298599 40.456856,108.662956 32.983978,116.191330 &#10;&#9;C32.900192,116.355354 32.814304,116.713554 32.509193,116.802521 &#10;&#9;C31.294138,117.411285 30.384192,117.931076 29.338903,118.322044 &#10;&#9;C29.203562,118.193214 28.932949,117.935471 28.932949,117.935471 &#10;z" style=""/>
  <path opacity="1.000000" stroke="none" d="&#10;M20.149593,135.921768 &#10;&#9;C41.032692,156.735031 61.915791,177.548294 82.560440,198.703613 &#10;&#9;C81.876259,199.043655 81.430527,199.041626 80.984787,199.039597 &#10;&#9;C71.472794,189.660049 61.917664,180.323746 52.459896,170.889847 &#10;&#9;C41.040493,159.499268 29.703630,148.025925 18.563545,136.284271 &#10;&#9;C19.247227,135.960678 19.698410,135.941223 20.149593,135.921768 &#10;z" style=""/>
  <path opacity="1.000000" stroke="none" d="&#10;M94.611298,211.221069 &#10;&#9;C97.981689,213.680542 101.115150,216.330444 104.642822,219.331940 &#10;&#9;C105.700012,220.337845 106.363007,220.992157 107.119324,221.985123 &#10;&#9;C108.849541,223.779510 110.486435,225.235245 112.259018,227.008118 &#10;&#9;C116.890907,231.589569 121.387100,235.853882 125.994507,240.348114 &#10;&#9;C126.408936,240.710449 126.712135,240.842896 127.353668,241.001740 &#10;&#9;C128.845978,240.404068 129.999954,239.780014 131.486389,239.098083 &#10;&#9;C135.524261,235.672043 139.229691,232.303909 143.011230,229.017303 &#10;&#9;C143.087326,229.098801 143.233337,229.267410 143.233337,229.267410 &#10;&#9;C139.265686,233.920044 135.558624,238.846786 131.151230,243.036880 &#10;&#9;C130.018036,244.114212 125.802864,243.792969 124.491844,242.547531 &#10;&#9;C114.285172,232.851547 104.437721,222.777100 94.514305,212.784790 &#10;&#9;C94.262268,212.531006 94.412003,211.878204 94.611298,211.221069 &#10;z" style=""/>
  <path opacity="1.000000" stroke="none" d="&#10;M183.987030,76.543404 &#10;&#9;C183.386475,78.035210 182.686539,79.223274 181.666718,80.602280 &#10;&#9;C179.047272,78.760681 176.601410,76.869217 174.477478,74.667236 &#10;&#9;C169.531342,69.539345 164.740204,64.261940 160.206818,58.910110 &#10;&#9;C161.871323,58.523643 163.215271,58.272179 164.733002,58.343052 &#10;&#9;C166.207672,59.484455 167.508575,60.303513 168.809479,61.122570 &#10;&#9;C170.377136,62.584396 171.944794,64.046227 173.881195,65.907585 &#10;&#9;C176.546051,68.467621 178.842178,70.628120 181.138306,72.788620 &#10;&#9;C182.054749,73.938965 182.971207,75.089317 183.987030,76.543404 &#10;z" style=""/>
  <path opacity="1.000000" stroke="none" d="&#10;M172.979385,196.988159 &#10;&#9;C173.502747,196.732529 174.026108,196.476883 174.919678,195.946457 &#10;&#9;C175.516739,195.427460 175.743607,195.183273 176.266479,194.836884 &#10;&#9;C177.324554,193.782181 178.086639,192.829681 178.848724,191.877167 &#10;&#9;C178.848709,191.877167 178.962799,191.952393 179.210815,191.851959 &#10;&#9;C180.000671,191.538666 180.542526,191.325821 181.084381,191.112976 &#10;&#9;C177.843231,195.396881 174.987320,200.053574 171.279160,203.885559 &#10;&#9;C163.999786,211.408005 156.276352,218.503479 148.661499,225.696060 &#10;&#9;C147.257706,227.022018 145.498993,227.972214 143.568710,229.181625 &#10;&#9;C143.233337,229.267410 143.087326,229.098801 143.135895,228.762390 &#10;&#9;C143.409637,227.913010 143.634827,227.400024 144.102966,226.653366 &#10;&#9;C148.687805,221.863129 153.029678,217.306549 157.702942,212.706253 &#10;&#9;C158.868576,211.762848 159.702835,210.863190 160.732117,209.773041 &#10;&#9;C160.957001,209.403259 160.986893,209.223999 161.280182,209.016388 &#10;&#9;C161.898376,208.640182 162.253189,208.292313 162.794067,207.793991 &#10;&#9;C162.980118,207.643524 163.194519,207.218109 163.521637,207.137970 &#10;&#9;C164.934479,205.739212 166.020187,204.420593 167.399200,202.934326 &#10;&#9;C169.454803,200.840515 171.217087,198.914337 172.979385,196.988159 &#10;z" style=""/>
  <path opacity="1.000000" stroke="none" d="&#10;M233.582886,124.060547 &#10;&#9;C224.468369,115.639412 215.507477,106.863220 206.467743,97.747940 &#10;&#9;C208.109192,98.375877 210.127426,99.034668 211.500000,100.361404 &#10;&#9;C218.821991,107.438782 225.992874,114.672913 233.171051,121.897507 &#10;&#9;C233.565994,122.295029 233.557297,123.093597 233.582886,124.060547 &#10;z" style=""/>
  <path opacity="1.000000" stroke="none" d="&#10;M20.073799,135.589966 &#10;&#9;C19.698410,135.941223 19.247227,135.960678 18.459721,135.971497 &#10;&#9;C14.981843,132.790405 15.740801,129.758331 18.613209,126.983078 &#10;&#9;C21.758698,123.943985 25.041328,121.046837 28.598572,118.011650 &#10;&#9;C28.932949,117.935471 29.203562,118.193214 29.221863,118.619667 &#10;&#9;C29.134388,119.683273 29.028608,120.320419 28.670952,121.128601 &#10;&#9;C27.612484,122.195480 26.805891,123.091324 25.748970,124.057655 &#10;&#9;C25.286716,124.395584 25.074789,124.663033 24.553646,125.000786 &#10;&#9;C23.125204,126.319893 22.005978,127.568703 20.886751,128.817505 &#10;&#9;C16.750463,130.434509 18.694967,132.890610 20.073799,135.589966 &#10;z" style=""/>
  <path opacity="1.000000" stroke="none" d="&#10;M80.989487,199.447449 &#10;&#9;C81.430527,199.041626 81.876259,199.043655 82.655609,199.025909 &#10;&#9;C85.588036,201.593933 88.186859,204.181747 90.849380,207.132278 &#10;&#9;C88.662621,209.889282 86.685745,210.152603 84.972755,206.875946 &#10;&#9;C83.727264,204.493530 82.325996,202.192581 80.989487,199.447449 &#10;z" style=""/>
  <path opacity="1.000000" stroke="none" d="&#10;M133.513626,25.962191 &#10;&#9;C138.653702,24.111055 139.661285,28.698757 141.577026,31.685333 &#10;&#9;C140.533020,31.993732 139.822708,31.968309 138.808487,31.806889 &#10;&#9;C136.683487,29.778278 134.862381,27.885664 133.160095,25.996471 &#10;&#9;C133.278915,25.999893 133.513626,25.962191 133.513626,25.962191 &#10;z" style=""/>
  <path opacity="1.000000" stroke="none" d="&#10;M193.916458,176.903748 &#10;&#9;C196.008713,174.588638 198.100952,172.273529 200.577637,170.263779 &#10;&#9;C200.932465,170.998276 200.902863,171.427414 200.873260,171.856552 &#10;&#9;C199.388245,173.411057 197.903259,174.965546 195.821594,176.720856 &#10;&#9;C194.788773,176.915680 194.352615,176.909714 193.916458,176.903748 &#10;z" style=""/>
  <path opacity="1.000000" stroke="none" d="&#10;M181.270386,72.508621 &#10;&#9;C178.842178,70.628120 176.546051,68.467621 174.192810,65.956940 &#10;&#9;C178.633591,65.536224 180.635605,68.204697 181.270386,72.508621 &#10;z" style=""/>
  <path opacity="1.000000" stroke="none" d="&#10;M189.131409,181.893402 &#10;&#9;C189.131409,181.893387 189.427017,181.948578 189.526245,182.054916 &#10;&#9;C190.159042,187.436752 185.789047,188.691559 182.227295,190.480591 &#10;&#9;C183.367004,188.187531 184.788589,186.254074 186.210175,184.320618 &#10;&#9;C186.210159,184.320618 186.261566,184.262222 186.644684,184.142822 &#10;&#9;C187.729004,183.313416 188.430206,182.603409 189.131409,181.893402 &#10;z" style=""/>
  <path opacity="1.000000" stroke="none" d="&#10;M160.863159,51.902641 &#10;&#9;C158.809830,50.530693 156.832672,48.701168 154.726898,46.556595 &#10;&#9;C156.520248,46.241554 158.442215,46.241554 160.939331,46.241554 &#10;&#9;C160.939331,48.254284 160.939331,49.849670 160.863159,51.902641 &#10;z" style=""/>
  <path opacity="1.000000" stroke="none" d="&#10;M200.686646,91.234138 &#10;&#9;C198.054245,89.326202 195.533264,87.035912 192.923065,84.413628 &#10;&#9;C197.457413,84.022293 198.861328,87.750435 200.686646,91.234138 &#10;z" style=""/>
  <path opacity="1.000000" stroke="none" d="&#10;M185.853165,184.248260 &#10;&#9;C184.788589,186.254074 183.367004,188.187531 181.869812,190.441574 &#10;&#9;C181.794205,190.762161 181.436722,190.932632 181.260559,191.022797 &#10;&#9;C180.542526,191.325821 180.000671,191.538666 179.167419,191.799194 &#10;&#9;C181.082718,189.289871 183.289444,186.732895 185.853165,184.248260 &#10;z" style=""/>
  <path opacity="1.000000" stroke="none" d="&#10;M120.982483,25.845488 &#10;&#9;C121.486580,22.496901 122.738304,20.074598 126.618973,20.996143 &#10;&#9;C126.093330,22.320967 125.530548,23.126055 124.814369,24.230038 &#10;&#9;C123.487434,25.145824 122.313889,25.762718 121.140343,26.379612 &#10;&#9;C121.140343,26.379610 121.041603,26.021544 120.982483,25.845488 &#10;z" style=""/>
  <path opacity="1.000000" stroke="none" d="&#10;M153.213715,45.462868 &#10;&#9;C151.137283,43.818489 149.024643,41.846764 147.201813,39.572651 &#10;&#9;C148.331726,39.841038 149.171814,40.411819 150.011917,40.982605 &#10;&#9;C151.067108,42.366909 152.122299,43.751217 153.213715,45.462868 &#10;z" style=""/>
  <path opacity="1.000000" stroke="none" d="&#10;M164.559235,58.020710 &#10;&#9;C163.215271,58.272179 161.871323,58.523643 159.922516,58.880135 &#10;&#9;C158.871185,58.661655 158.424698,58.338158 157.978195,58.014656 &#10;&#9;C158.973450,57.053898 159.968704,56.093140 161.111420,54.797882 &#10;&#9;C162.365967,55.158546 163.473053,55.853710 164.666687,57.063671 &#10;&#9;C164.753220,57.578472 164.559235,58.020710 164.559235,58.020710 &#10;z" style=""/>
  <path opacity="1.000000" stroke="none" d="&#10;M124.967766,23.931145 &#10;&#9;C125.530548,23.126055 126.093330,22.320967 126.828514,21.256165 &#10;&#9;C128.034134,21.025093 129.067368,21.053732 130.523102,21.449409 &#10;&#9;C131.021866,22.479124 131.098099,23.141802 131.119080,23.867168 &#10;&#9;C131.063828,23.929859 130.949295,24.051561 130.606018,24.007238 &#10;&#9;C128.497757,23.952326 126.732758,23.941734 124.967766,23.931145 &#10;z" style=""/>
  <path opacity="1.000000" stroke="none" d="&#10;M215.904907,156.643280 &#10;&#9;C216.162979,155.438385 216.783890,154.363434 218.026611,153.135452 &#10;&#9;C219.142624,152.988525 219.636810,152.994644 220.131012,153.000763 &#10;&#9;C220.309555,155.677216 220.309555,155.677216 215.904907,156.643280 &#10;z" style=""/>
  <path opacity="1.000000" stroke="none" d="&#10;M229.072372,143.881775 &#10;&#9;C229.951294,142.563812 230.941696,141.559128 232.266129,140.466888 &#10;&#9;C232.932999,142.968796 234.010529,146.225037 229.072372,143.881775 &#10;z" style=""/>
  <path opacity="1.000000" stroke="none" d="&#10;M201.241379,171.872757 &#10;&#9;C200.902863,171.427414 200.932465,170.998276 200.936356,170.246033 &#10;&#9;C201.925095,169.175262 202.939560,168.427628 204.257141,167.624207 &#10;&#9;C203.576660,169.008606 202.593079,170.448776 201.241379,171.872757 &#10;z" style=""/>
  <path opacity="1.000000" stroke="none" d="&#10;M236.860413,129.225616 &#10;&#9;C235.794891,127.877106 234.729370,126.528603 233.615753,124.875153 &#10;&#9;C235.052811,125.768379 236.537979,126.966545 237.735153,128.602402 &#10;&#9;C237.251587,129.101944 237.056000,129.163773 236.860413,129.225616 &#10;z" style=""/>
  <path opacity="1.000000" stroke="none" d="&#10;M189.949982,80.775558 &#10;&#9;C188.568680,80.047958 187.222488,78.923096 185.807831,77.473145 &#10;&#9;C187.154602,78.224808 188.569855,79.301552 189.949982,80.775558 &#10;z" style=""/>
  <path opacity="1.000000" stroke="none" d="&#10;M164.733002,58.343052 &#10;&#9;C164.559235,58.020710 164.753220,57.578472 164.829712,57.350052 &#10;&#9;C166.202011,58.234009 167.497833,59.346382 168.801559,60.790665 &#10;&#9;C167.508575,60.303513 166.207672,59.484455 164.733002,58.343052 &#10;z" style=""/>
  <path opacity="1.000000" stroke="none" d="&#10;M236.879608,129.625900 &#10;&#9;C237.056000,129.163773 237.251587,129.101944 237.746918,128.969040 &#10;&#9;C238.365402,130.029678 238.684128,131.161392 238.759689,132.809402 &#10;&#9;C238.363235,133.894394 238.209976,134.463089 238.056702,135.031769 &#10;&#9;C237.864807,135.035339 237.672913,135.038895 237.206665,134.953278 &#10;&#9;C236.921158,133.251465 236.909973,131.638824 236.879608,129.625900 &#10;z" style=""/>
  <path opacity="1.000000" stroke="none" d="&#10;M205.945343,96.825470 &#10;&#9;C204.727158,96.267899 203.548721,95.349495 202.328384,94.111145 &#10;&#9;C205.133804,92.448837 205.829056,94.083725 205.945343,96.825470 &#10;z" style=""/>
  <path opacity="1.000000" stroke="none" d="&#10;M131.174332,23.804480 &#10;&#9;C131.098099,23.141802 131.021866,22.479124 130.908905,21.488407 &#10;&#9;C131.792953,21.959412 132.713730,22.758455 133.087494,23.764858 &#10;&#9;C132.085098,23.916302 131.629715,23.860392 131.174332,23.804480 &#10;z" style=""/>
  <path opacity="1.000000" stroke="none" d="&#10;M139.112396,31.942884 &#10;&#9;C139.822708,31.968309 140.533020,31.993732 141.597443,32.031380 &#10;&#9;C142.285263,32.745525 142.618988,33.447449 142.773071,34.516834 &#10;&#9;C142.376740,34.941860 142.160019,34.999428 141.943283,35.056999 &#10;&#9;C141.943283,35.056999 141.513153,35.004204 141.166748,34.688068 &#10;&#9;C140.251022,33.562252 139.681717,32.752567 139.112396,31.942884 &#10;z" style=""/>
  <path opacity="1.000000" stroke="none" d="&#10;M193.653992,177.092636 &#10;&#9;C194.352615,176.909714 194.788773,176.915680 195.550873,176.894501 &#10;&#9;C195.004684,177.824326 194.132553,178.781281 192.914886,179.708588 &#10;&#9;C192.843414,178.879807 193.117477,178.080658 193.653992,177.092636 &#10;z" style=""/>
  <path opacity="1.000000" stroke="none" d="&#10;M225.560425,145.423843 &#10;&#9;C225.766129,144.656509 226.346024,143.780853 227.118240,143.235992 &#10;&#9;C227.310562,143.566772 227.246368,143.764786 227.147430,143.903442 &#10;&#9;C227.048492,144.042084 227.024506,144.242432 227.024506,144.242432 &#10;&#9;C226.661224,144.600128 226.297928,144.957825 225.560425,145.423843 &#10;z" style=""/>
  <path opacity="1.000000" stroke="none" d="&#10;M150.005524,40.600868 &#10;&#9;C149.171814,40.411819 148.331726,39.841038 147.188049,39.216484 &#10;&#9;C146.837555,38.993919 146.790619,38.825130 146.747696,38.394012 &#10;&#9;C147.834198,38.827503 148.916656,39.523319 150.005524,40.600868 &#10;z" style=""/>
  <path opacity="1.000000" stroke="none" d="&#10;M220.258163,152.750732 &#10;&#9;C219.636810,152.994644 219.142624,152.988525 218.280060,152.940598 &#10;&#9;C218.687607,152.226852 219.463531,151.554932 220.584610,150.916351 &#10;&#9;C220.748291,151.466675 220.566803,151.983673 220.258163,152.750732 &#10;z" style=""/>
  <path opacity="1.000000" stroke="none" d="&#10;M142.024384,35.396744 &#10;&#9;C142.160019,34.999428 142.376740,34.941860 142.913956,34.777882 &#10;&#9;C143.591751,35.126583 143.949051,35.581703 144.360062,36.320496 &#10;&#9;C143.644363,36.314945 142.874924,36.025719 142.024384,35.396744 &#10;z" style=""/>
  <path opacity="1.000000" stroke="none" d="&#10;M131.119080,23.867168 &#10;&#9;C131.629715,23.860392 132.085098,23.916302 132.889099,23.994816 &#10;&#9;C133.276077,24.452642 133.314468,24.887869 133.433228,25.642643 &#10;&#9;C133.513626,25.962191 133.278915,25.999893 132.830719,25.970821 &#10;&#9;C131.904785,25.311686 131.427048,24.681623 130.949295,24.051563 &#10;&#9;C130.949295,24.051561 131.063828,23.929859 131.119080,23.867168 &#10;z" style=""/>
  <path opacity="1.000000" stroke="none" d="&#10;M238.344177,135.000916 &#10;&#9;C238.209976,134.463089 238.363235,133.894394 238.774475,133.165985 &#10;&#9;C238.898834,133.660858 238.765244,134.315460 238.344177,135.000916 &#10;z" style=""/>
  <path opacity="1.000000" stroke="none" d="&#10;M192.701355,83.175156 &#10;&#9;C191.943802,83.063705 191.274368,82.540428 190.506348,81.703636 &#10;&#9;C191.201675,81.847862 191.995575,82.305603 192.701355,83.175156 &#10;z" style=""/>
  <path opacity="1.000000" stroke="none" d="&#10;M227.140198,144.367447 &#10;&#9;C227.024506,144.242432 227.048492,144.042084 227.049286,143.938080 &#10;&#9;C227.203369,143.977051 227.356689,144.120041 227.510010,144.263031 &#10;&#9;C227.425308,144.339508 227.340607,144.415985 227.140198,144.367447 &#10;z" style=""/>
  <path opacity="1.000000" stroke="none" d="&#10;M233.934937,138.879929 &#10;&#9;C233.788773,138.665390 233.849991,138.482407 234.164383,138.158112 &#10;&#9;C234.450455,138.261444 234.508545,138.507141 234.498062,138.749908 &#10;&#9;C234.495514,138.808762 234.266953,138.857880 233.934937,138.879929 &#10;z" style=""/>
  <path opacity="1.000000" stroke="none" d="&#10;M233.052460,137.190247 &#10;&#9;C233.208054,137.002350 233.423691,137.045105 233.940414,137.226532 &#10;&#9;C234.241516,137.365219 234.157455,137.798630 233.968964,137.915009 &#10;&#9;C233.431961,137.965714 233.209305,137.762222 233.052460,137.190247 &#10;z" style=""/>
  <path opacity="1.000000" stroke="none" d="&#10;M234.903549,136.896866 &#10;&#9;C234.927231,136.897995 234.849182,136.718399 234.860413,136.814407 &#10;&#9;C234.871643,136.910416 234.879868,136.895737 234.903549,136.896866 &#10;z" style=""/>
  <path opacity="1.000000" stroke="none" d="&#10;M33.329849,138.766556 &#10;&#9;C35.235764,140.608337 37.141678,142.450119 39.167313,144.611969 &#10;&#9;C38.090591,145.835083 36.894154,146.738129 35.327194,147.920822 &#10;&#9;C30.826963,143.316956 26.158625,138.721146 21.760014,133.880264 &#10;&#9;C20.938910,132.976593 21.199669,131.089905 20.923954,129.237183 &#10;&#9;C22.005978,127.568703 23.125204,126.319893 24.810770,124.938126 &#10;&#9;C25.584507,124.532501 25.791903,124.259834 25.999298,123.987175 &#10;&#9;C26.805891,123.091324 27.612484,122.195480 29.030167,121.117233 &#10;&#9;C30.698938,119.527748 31.756620,118.120651 32.814301,116.713554 &#10;&#9;C32.814304,116.713554 32.900192,116.355354 33.342293,116.186752 &#10;&#9;C34.687210,115.661690 35.828400,115.542587 36.456112,114.912193 &#10;&#9;C43.018368,108.321968 49.498283,101.649765 56.289249,95.137306 &#10;&#9;C57.969563,96.059113 59.361633,96.843872 60.704666,97.958679 &#10;&#9;C59.469376,99.233337 58.283115,100.177956 57.040985,100.954544 &#10;&#9;C56.883556,100.728294 56.781998,100.670052 56.680443,100.611816 &#10;&#9;C56.828285,100.773117 56.976124,100.934425 57.063271,101.418564 &#10;&#9;C56.197895,102.463875 55.393215,103.186333 54.258991,103.919098 &#10;&#9;C53.334145,104.681625 52.738838,105.433853 52.218719,106.204536 &#10;&#9;C52.293911,106.222992 52.288189,106.377739 51.922493,106.285843 &#10;&#9;C49.694561,108.450745 47.832321,110.707542 45.760704,113.192749 &#10;&#9;C44.846352,114.169678 44.141384,114.918205 43.216797,115.547668 &#10;&#9;C42.705296,116.628098 42.413414,117.827591 42.372459,119.329330 &#10;&#9;C43.138691,119.661324 43.654003,119.691086 44.277946,119.972549 &#10;&#9;C50.590748,126.152222 56.794922,132.080200 62.991531,138.330750 &#10;&#9;C63.592739,139.124939 64.201508,139.596573 65.072586,140.311661 &#10;&#9;C67.162880,142.267242 68.990868,143.979385 70.865021,145.922028 &#10;&#9;C71.264275,146.433350 71.617371,146.714172 72.147476,147.292328 &#10;&#9;C74.655144,149.990448 76.985817,152.391251 79.225822,155.202850 &#10;&#9;C79.425400,156.061005 79.715645,156.508362 80.182243,157.226959 &#10;&#9;C80.768311,157.502914 81.178032,157.507599 81.767685,157.763489 &#10;&#9;C84.105774,159.664261 86.263916,161.313843 88.320847,163.136414 &#10;&#9;C88.489700,163.532761 88.759766,163.756119 89.210480,164.209412 &#10;&#9;C90.001381,165.185150 90.611626,165.930954 91.156967,167.046936 &#10;&#9;C92.149460,168.850403 93.072983,170.410370 94.288124,171.694336 &#10;&#9;C98.818306,176.481171 103.444183,181.177414 107.853271,186.178864 &#10;&#9;C107.061287,186.660095 106.450203,186.870102 105.499374,187.043030 &#10;&#9;C104.121597,186.211212 102.985374,185.516388 102.059937,184.607056 &#10;&#9;C81.461960,164.367462 60.888462,144.102966 40.306938,123.846634 &#10;&#9;C36.699081,120.295776 34.510208,120.425270 31.416924,124.370300 &#10;&#9;C30.704529,125.278862 30.124918,126.299088 29.361187,127.158623 &#10;&#9;C24.210472,132.955399 25.360798,136.348801 33.329849,138.766556 &#10;z" style=""/>
  <path opacity="1.000000" stroke="none" d="&#10;M120.849518,225.166321 &#10;&#9;C122.492760,226.903839 124.135994,228.641342 125.874908,231.050201 &#10;&#9;C126.604034,232.698212 127.237488,233.674835 127.870941,234.651474 &#10;&#9;C128.623383,233.609009 129.375809,232.566544 130.348389,231.312500 &#10;&#9;C131.052567,230.736526 131.536560,230.372116 132.241913,229.913361 &#10;&#9;C132.740555,229.631577 132.928223,229.377823 133.018860,229.027054 &#10;&#9;C133.011444,228.996323 133.056534,229.040710 133.426422,229.029968 &#10;&#9;C134.877579,227.699020 135.958832,226.378845 137.020813,225.030136 &#10;&#9;C137.001541,225.001602 137.058838,225.039795 137.419739,225.027985 &#10;&#9;C141.639191,223.653992 144.523300,221.413696 145.103882,216.784393 &#10;&#9;C145.387314,216.277557 145.637817,216.080231 146.329086,215.983902 &#10;&#9;C148.389328,214.268661 150.079330,212.541962 151.826996,210.838638 &#10;&#9;C151.884644,210.862030 151.808533,210.763580 152.146271,210.820038 &#10;&#9;C153.318970,210.575073 154.153931,210.273666 155.019135,210.261047 &#10;&#9;C155.823425,211.283234 156.597488,212.016602 157.371536,212.749985 &#10;&#9;C153.029678,217.306549 148.687805,221.863129 143.749634,226.662140 &#10;&#9;C139.153534,230.988373 135.153732,235.072174 131.153946,239.155975 &#10;&#9;C129.999954,239.780014 128.845978,240.404068 127.245285,240.768494 &#10;&#9;C126.493492,240.378662 126.188393,240.248428 125.883293,240.118210 &#10;&#9;C121.387100,235.853882 116.890907,231.589569 112.234734,226.657288 &#10;&#9;C110.931625,221.289688 109.712234,220.240784 107.026001,221.646469 &#10;&#9;C106.363007,220.992157 105.700012,220.337845 104.977806,219.393768 &#10;&#9;C105.769485,218.436951 106.650162,217.165451 107.466217,217.205658 &#10;&#9;C111.371002,217.397995 115.258293,217.945740 118.843109,218.333755 &#10;&#9;C118.731979,219.921783 118.558121,222.406128 119.026917,224.972900 &#10;&#9;C120.062897,225.092316 120.456207,225.129318 120.849518,225.166321 &#10;z" style=""/>
  <path opacity="1.000000" stroke="none" d="&#10;M116.063484,121.121933 &#10;&#9;C117.041908,119.267509 117.662689,117.068916 119.059662,115.617264 &#10;&#9;C125.675003,108.742950 132.352539,101.908501 139.393921,95.482819 &#10;&#9;C140.642319,94.343590 144.674255,94.212341 145.808823,95.298882 &#10;&#9;C161.301682,110.135963 176.521622,125.258446 191.761841,140.357971 &#10;&#9;C192.645569,141.233551 193.126953,142.515228 193.679535,143.968567 &#10;&#9;C185.634125,136.918777 177.665405,129.549896 169.788696,122.083923 &#10;&#9;C164.146454,116.735870 158.627457,111.257820 152.699097,105.759506 &#10;&#9;C152.344742,105.681252 152.295105,105.662186 152.235443,105.339378 &#10;&#9;C150.976028,103.662071 149.836395,102.248138 148.566177,100.963310 &#10;&#9;C142.935730,95.268158 141.883484,95.373840 136.850159,102.083153 &#10;&#9;C136.742111,102.181015 136.692032,102.468231 136.369019,102.565994 &#10;&#9;C135.262329,103.661476 134.478653,104.659203 133.760529,105.757500 &#10;&#9;C133.826065,105.858070 133.650467,105.694328 133.324860,105.739922 &#10;&#9;C131.659622,106.976532 130.309204,108.155663 128.982361,109.360748 &#10;&#9;C124.671417,113.276031 120.369118,117.200813 116.063484,121.121933 &#10;z" style=""/>
  <path opacity="1.000000" stroke="none" d="&#10;M193.696930,144.775177 &#10;&#9;C196.804443,145.265900 197.550552,147.700577 195.108109,150.123810 &#10;&#9;C177.476410,167.617035 159.793976,185.059341 142.063416,202.452332 &#10;&#9;C140.583694,203.903870 138.632019,204.874298 136.550476,206.084534 &#10;&#9;C138.974136,203.071030 141.642563,199.937424 144.537094,197.028824 &#10;&#9;C160.112671,181.377487 175.774872,165.812164 191.298752,150.109955 &#10;&#9;C192.533005,148.861511 192.943939,146.799118 193.696930,144.775177 &#10;z" style=""/>
  <path opacity="1.000000" stroke="none" d="&#10;M66.842659,172.929901 &#10;&#9;C70.038033,175.423111 72.838318,177.980530 75.797516,181.174072 &#10;&#9;C76.891106,182.571564 77.825790,183.332947 78.760468,184.094315 &#10;&#9;C81.704895,186.934006 84.649315,189.773697 87.764053,192.910461 &#10;&#9;C88.149986,194.955200 88.365593,196.702835 88.757126,199.876450 &#10;&#9;C85.076385,196.697327 82.160980,194.433563 79.545753,191.864273 &#10;&#9;C74.952621,187.351852 70.605301,182.589676 66.028740,178.059677 &#10;&#9;C63.978409,176.030228 61.976894,174.336548 66.842659,172.929901 &#10;z" style=""/>
  <path opacity="1.000000" stroke="none" d="&#10;M145.397858,107.834396 &#10;&#9;C145.397858,107.834396 145.081848,107.551247 145.048630,107.077194 &#10;&#9;C145.025864,106.404846 145.036301,106.206558 145.370331,105.955338 &#10;&#9;C147.894333,105.822327 150.094711,105.742256 152.295105,105.662186 &#10;&#9;C152.295105,105.662186 152.344742,105.681252 152.371582,105.686707 &#10;&#9;C150.829559,107.620476 156.605728,110.355682 151.204865,111.655884 &#10;&#9;C148.929520,110.206642 147.163696,109.020515 145.397858,107.834396 &#10;z" style=""/>
  <path opacity="1.000000" stroke="none" d="&#10;M155.344650,175.974487 &#10;&#9;C157.099319,173.679459 159.200211,171.362778 161.639099,168.999908 &#10;&#9;C159.881683,171.286743 157.786270,173.619781 155.344650,175.974487 &#10;z" style=""/>
  <path opacity="1.000000" stroke="none" d="&#10;M169.279297,161.953766 &#10;&#9;C171.055115,159.655182 173.182693,157.345200 175.653900,155.013000 &#10;&#9;C173.875366,157.307983 171.753220,159.625183 169.279297,161.953766 &#10;z" style=""/>
  <path opacity="1.000000" stroke="none" d="&#10;M147.332764,183.973495 &#10;&#9;C148.753662,182.005203 150.522812,180.019653 152.628113,177.979996 &#10;&#9;C151.203171,179.935989 149.442078,181.946121 147.332764,183.973495 &#10;z" style=""/>
  <path opacity="1.000000" stroke="none" d="&#10;M179.296112,151.953720 &#10;&#9;C180.011230,149.869980 181.083725,147.768173 182.202484,145.290466 &#10;&#9;C186.015778,148.967148 181.917999,150.112579 179.296112,151.953720 &#10;z" style=""/>
  <path opacity="1.000000" stroke="none" d="&#10;M145.395630,108.165939 &#10;&#9;C147.163696,109.020515 148.929520,110.206642 150.861435,111.682312 &#10;&#9;C151.000671,112.207092 150.973816,112.442329 150.871704,113.026688 &#10;&#9;C148.995422,111.749695 147.194412,110.123589 145.395630,108.165939 &#10;z" style=""/>
  <path opacity="1.000000" stroke="none" d="&#10;M163.350845,167.979675 &#10;&#9;C164.440933,166.349106 165.876923,164.697586 167.652313,163.015381 &#10;&#9;C166.560059,164.642685 165.128403,166.300705 163.350845,167.979675 &#10;z" style=""/>
  <path opacity="1.000000" stroke="none" d="&#10;M120.925179,224.745300 &#10;&#9;C120.456207,225.129318 120.062897,225.092316 119.376816,225.003174 &#10;&#9;C119.420021,223.960480 119.755989,222.969925 120.408035,221.881622 &#10;&#9;C120.816360,222.630676 120.908600,223.477493 120.925179,224.745300 &#10;z" style=""/>
  <path opacity="1.000000" stroke="none" d="&#10;M142.282928,188.958481 &#10;&#9;C142.424927,188.339355 142.893845,187.700653 143.683929,187.044891 &#10;&#9;C143.540039,187.664856 143.074951,188.301880 142.282928,188.958481 &#10;z" style=""/>
  <path opacity="1.000000" stroke="none" d="&#10;M157.682465,57.864578 &#10;&#9;C158.424698,58.338158 158.871185,58.661655 159.601990,59.015129 &#10;&#9;C164.740204,64.261940 169.531342,69.539345 174.477478,74.667236 &#10;&#9;C176.601410,76.869217 179.047272,78.760681 181.643127,80.964813 &#10;&#9;C183.077179,82.709389 184.030029,84.465996 185.381348,85.826920 &#10;&#9;C198.840454,99.381355 212.429535,112.807625 225.789703,126.458237 &#10;&#9;C227.446854,128.151398 227.986206,130.938568 229.052765,133.620026 &#10;&#9;C228.619522,134.360214 228.177032,134.699142 227.328033,134.979599 &#10;&#9;C226.921509,134.921112 226.672134,134.677689 226.769562,134.308502 &#10;&#9;C226.318954,132.171707 226.300858,129.878036 225.145081,128.713760 &#10;&#9;C198.976227,102.352852 172.672150,76.126236 146.431061,49.836891 &#10;&#9;C144.103836,47.505398 142.124176,47.215836 139.666000,49.687653 &#10;&#9;C118.408646,71.062965 97.115387,92.402695 75.780243,113.700340 &#10;&#9;C73.322281,116.153976 73.528221,118.105904 75.899742,120.447769 &#10;&#9;C87.040100,131.448792 98.263359,142.373962 109.113625,153.656464 &#10;&#9;C113.191025,157.896317 115.280586,155.053375 118.020164,152.497269 &#10;&#9;C120.944778,149.768494 121.624382,147.560272 118.201202,144.347672 &#10;&#9;C110.068398,136.715225 102.333916,128.659286 94.398270,120.815170 &#10;&#9;C92.301010,118.742104 90.827446,116.754578 93.513222,114.070969 &#10;&#9;C109.066849,98.529945 124.560249,82.927910 140.247040,67.522682 &#10;&#9;C141.212891,66.574173 144.419067,66.312401 145.287247,67.121445 &#10;&#9;C150.374054,71.861725 155.075104,77.015953 159.554169,82.027267 &#10;&#9;C158.498032,82.005096 157.793991,81.986221 156.863647,81.707687 &#10;&#9;C155.369446,80.492050 153.950684,79.681519 152.862183,78.552551 &#10;&#9;C149.728699,75.302544 146.728592,71.923935 142.554550,67.373055 &#10;&#9;C126.454506,84.423294 110.939804,100.853630 94.606544,118.150841 &#10;&#9;C98.669930,121.061310 102.828651,124.040062 106.991524,127.009468 &#10;&#9;C106.995674,127.000122 106.980919,127.010330 106.973923,127.377151 &#10;&#9;C107.868011,129.245407 108.543686,130.957672 109.713188,132.208038 &#10;&#9;C112.991325,135.712860 116.427628,139.074539 119.889595,142.401047 &#10;&#9;C122.573784,144.980225 125.302567,147.330048 123.330658,151.758240 &#10;&#9;C122.975990,152.554688 124.464241,154.171799 125.089294,155.717072 &#10;&#9;C124.355461,156.680756 123.633965,157.337357 122.651657,157.772324 &#10;&#9;C121.536690,154.292847 119.899216,154.490417 117.885620,156.553802 &#10;&#9;C114.127563,160.404800 111.009750,160.400253 107.335136,155.956070 &#10;&#9;C102.924065,150.621185 97.788498,145.880692 92.913086,140.935608 &#10;&#9;C87.315254,135.257812 81.658752,129.637878 76.027740,123.992805 &#10;&#9;C68.580872,115.047142 70.094086,116.662621 77.027008,109.507957 &#10;&#9;C88.060631,98.121399 99.118896,86.758659 110.188560,75.407127 &#10;&#9;C118.923874,66.449394 127.681969,57.513802 136.450073,48.588161 &#10;&#9;C140.446274,44.520153 143.951447,44.565716 148.134277,48.661392 &#10;&#9;C151.217346,51.680206 154.302505,54.696873 157.682465,57.864578 &#10;z" style=""/>
  <path opacity="1.000000" stroke="none" d="&#10;M75.694031,124.022125 &#10;&#9;C81.658752,129.637878 87.315254,135.257812 92.913086,140.935608 &#10;&#9;C97.788498,145.880692 102.924065,150.621185 107.335136,155.956070 &#10;&#9;C111.009750,160.400253 114.127563,160.404800 117.885620,156.553802 &#10;&#9;C119.899216,154.490417 121.536690,154.292847 122.534256,158.057968 &#10;&#9;C122.309967,159.294754 121.942261,160.024246 121.574554,160.753723 &#10;&#9;C121.250618,160.781342 120.945267,160.871719 120.028221,161.014099 &#10;&#9;C118.638840,162.066422 117.879715,163.129532 117.120590,164.192642 &#10;&#9;C117.120598,164.192642 117.132454,164.625351 116.830215,164.805664 &#10;&#9;C116.124023,165.086136 115.720085,165.186310 114.957993,165.207443 &#10;&#9;C113.435974,165.383667 112.272110,165.638916 110.806503,165.754150 &#10;&#9;C108.774246,164.239151 107.043724,162.864182 105.313202,161.489212 &#10;&#9;C102.574181,158.634689 99.835167,155.780182 96.698593,152.491211 &#10;&#9;C94.931755,150.922348 93.562477,149.787903 92.193199,148.653473 &#10;&#9;C92.036598,148.122299 91.880005,147.591141 91.771759,146.403961 &#10;&#9;C90.885094,145.161972 89.950089,144.576019 89.015076,143.990051 &#10;&#9;C89.015076,143.990051 88.558685,143.945236 88.240051,143.619476 &#10;&#9;C86.708382,142.368729 85.495346,141.443756 84.282303,140.518768 &#10;&#9;C83.041786,139.099609 81.801277,137.680466 80.205635,135.806183 &#10;&#9;C78.321945,134.083160 76.793381,132.815231 75.264816,131.547318 &#10;&#9;C74.515259,130.690659 73.765701,129.834000 72.715439,128.553436 &#10;&#9;C72.336655,127.752663 72.258575,127.375816 72.404800,126.829826 &#10;&#9;C72.714996,126.117561 72.800865,125.574440 72.886734,125.031311 &#10;&#9;C73.711266,124.704689 74.535797,124.378075 75.694031,124.022125 &#10;z" style=""/>
  <path opacity="1.000000" stroke="none" d="&#10;M130.007767,33.093624 &#10;&#9;C129.860672,32.947987 129.713562,32.802345 129.300232,32.124081 &#10;&#9;C127.702789,31.076174 126.371536,30.560884 124.963081,29.691074 &#10;&#9;C123.617859,28.900312 122.349846,28.464073 121.081825,28.027834 &#10;&#9;C121.087677,27.659826 121.093529,27.291819 121.119865,26.651712 &#10;&#9;C122.313889,25.762718 123.487434,25.145824 124.814369,24.230038 &#10;&#9;C126.732758,23.941734 128.497757,23.952326 130.606018,24.007240 &#10;&#9;C131.427048,24.681623 131.904785,25.311686 132.711914,25.967400 &#10;&#9;C134.862381,27.885664 136.683487,29.778278 138.808487,31.806889 &#10;&#9;C139.681717,32.752567 140.251022,33.562252 140.954849,34.642742 &#10;&#9;C139.479401,35.544636 137.869446,36.175720 135.689468,37.150585 &#10;&#9;C134.984100,37.625626 134.848770,37.756882 134.713455,37.888142 &#10;&#9;C134.713455,37.888142 134.717834,37.539810 134.794876,37.035999 &#10;&#9;C134.283051,36.010715 133.694183,35.489246 133.075500,34.962852 &#10;&#9;C133.045700,34.957924 133.043869,34.897541 133.033569,34.564152 &#10;&#9;C132.046722,33.653549 131.070190,33.076336 130.029846,32.641632 &#10;&#9;C129.966064,32.784145 130.007767,33.093624 130.007767,33.093624 &#10;z" style=""/>
  <path opacity="1.000000" stroke="none" d="&#10;M98.020065,80.761612 &#10;&#9;C99.779427,78.385727 101.900475,76.092598 104.347641,73.724998 &#10;&#9;C102.576431,76.048477 100.479088,78.446419 98.020065,80.761612 &#10;z" style=""/>
  <path opacity="1.000000" stroke="none" d="&#10;M106.419891,72.061768 &#10;&#9;C108.038605,69.957497 110.018692,67.869797 112.321442,65.705276 &#10;&#9;C110.689827,67.778412 108.735542,69.928375 106.419891,72.061768 &#10;z" style=""/>
  <path opacity="1.000000" stroke="none" d="&#10;M90.051048,88.747086 &#10;&#9;C91.450836,86.704308 93.215660,84.742027 95.301163,82.695724 &#10;&#9;C93.886597,84.683655 92.151337,86.755630 90.051048,88.747086 &#10;z" style=""/>
  <path opacity="1.000000" stroke="none" d="&#10;M66.081673,122.868347 &#10;&#9;C65.677979,122.151146 65.274277,121.433952 64.849716,120.408447 &#10;&#9;C66.535942,121.144608 68.243034,122.189079 69.884384,123.707291 &#10;&#9;C69.818649,124.181030 69.559494,124.440033 69.273056,124.300705 &#10;&#9;C68.018295,123.730362 67.049988,123.299355 66.081673,122.868347 &#10;z" style=""/>
  <path opacity="1.000000" stroke="none" d="&#10;M65.591461,113.147690 &#10;&#9;C66.065254,111.973885 66.888077,110.786438 68.106293,109.229141 &#10;&#9;C68.662720,108.571213 68.823769,108.283119 68.984818,107.995026 &#10;&#9;C69.354614,107.888649 69.724419,107.782265 70.378716,107.645813 &#10;&#9;C69.088966,109.455177 67.514732,111.294609 65.591461,113.147690 &#10;z" style=""/>
  <path opacity="1.000000" stroke="none" d="&#10;M79.074753,99.697670 &#10;&#9;C79.818275,98.338348 80.926086,97.073929 82.349960,95.744919 &#10;&#9;C81.590355,97.051071 80.514694,98.421822 79.074753,99.697670 &#10;z" style=""/>
  <path opacity="1.000000" stroke="none" d="&#10;M113.400536,65.036636 &#10;&#9;C114.149086,63.734646 115.266991,62.445843 116.708160,61.099579 &#10;&#9;C115.944252,62.378017 114.857071,63.713921 113.400536,65.036636 &#10;z" style=""/>
  <path opacity="1.000000" stroke="none" d="&#10;M136.254822,38.858807 &#10;&#9;C138.894226,40.544735 138.683365,41.940956 135.550415,42.722275 &#10;&#9;C135.600845,41.203777 135.927841,40.031292 136.254822,38.858807 &#10;z" style=""/>
  <path opacity="1.000000" stroke="none" d="&#10;M136.126984,38.583149 &#10;&#9;C135.927841,40.031292 135.600845,41.203777 135.191345,42.734783 &#10;&#9;C134.938400,43.126678 134.767990,43.160049 134.338379,43.171165 &#10;&#9;C134.263947,41.590328 134.448715,40.031754 134.673462,38.180660 &#10;&#9;C134.848770,37.756882 134.984100,37.625626 135.348297,37.332237 &#10;&#9;C135.717804,37.549240 135.858475,37.928364 136.126984,38.583149 &#10;z" style=""/>
  <path opacity="1.000000" stroke="none" d="&#10;M76.990631,100.002213 &#10;&#9;C77.347481,99.909592 77.704330,99.816971 78.334648,99.709412 &#10;&#9;C77.869621,100.730087 77.131126,101.765701 76.015984,102.709808 &#10;&#9;C75.703529,102.247650 75.767731,101.877014 76.149521,101.164268 &#10;&#9;C76.641617,100.548851 76.816124,100.275528 76.990631,100.002213 &#10;z" style=""/>
  <path opacity="1.000000" stroke="none" d="&#10;M72.610794,124.903572 &#10;&#9;C72.800865,125.574440 72.714996,126.117561 72.087425,126.753532 &#10;&#9;C70.883652,126.044258 70.221573,125.242149 69.559494,124.440033 &#10;&#9;C69.559494,124.440033 69.818649,124.181030 69.948929,124.050743 &#10;&#9;C70.831085,124.205582 71.582970,124.490707 72.610794,124.903572 &#10;z" style=""/>
  <path opacity="1.000000" stroke="none" d="&#10;M61.975204,116.765167 &#10;&#9;C61.697861,116.818626 61.514492,116.642860 61.383747,116.434120 &#10;&#9;C61.356487,116.390602 61.523796,116.225220 61.796242,116.058563 &#10;&#9;C62.023327,116.175484 62.055599,116.349846 61.975204,116.765167 &#10;z" style=""/>
  <path opacity="1.000000" stroke="none" d="&#10;M145.958862,215.972443 &#10;&#9;C145.637817,216.080231 145.387314,216.277557 144.790863,216.900452 &#10;&#9;C141.935898,219.837570 139.497360,222.438690 137.058838,225.039795 &#10;&#9;C137.058838,225.039795 137.001541,225.001602 136.716370,225.132919 &#10;&#9;C135.306320,226.523056 134.181427,227.781891 133.056534,229.040710 &#10;&#9;C133.056534,229.040710 133.011444,228.996323 132.779327,229.096085 &#10;&#9;C132.238144,229.379837 132.062592,229.650452 132.020554,230.007690 &#10;&#9;C131.536560,230.372116 131.052567,230.736526 130.085205,231.185272 &#10;&#9;C129.416901,231.213104 129.231964,231.156586 129.125580,230.823334 &#10;&#9;C129.479538,230.045258 129.754929,229.543900 130.030334,229.042557 &#10;&#9;C143.075256,215.832123 156.087494,202.589233 169.174408,189.420532 &#10;&#9;C181.830719,176.685150 194.469330,163.929123 207.325089,151.396942 &#10;&#9;C210.857422,147.953522 210.511108,145.719696 207.166229,142.404144 &#10;&#9;C186.464539,121.884071 165.938736,101.186562 145.171158,79.880447 &#10;&#9;C144.976761,78.959305 144.965729,78.705711 145.227539,78.394508 &#10;&#9;C147.363861,79.843956 149.227341,81.351021 151.078842,82.895416 &#10;&#9;C151.066864,82.932747 151.141754,82.909523 151.232269,83.230606 &#10;&#9;C154.209549,86.514999 157.044220,89.531242 159.992630,92.431885 &#10;&#9;C169.656189,101.938904 179.361084,111.403908 189.185822,121.191223 &#10;&#9;C192.991165,124.983078 196.660782,128.468781 200.330383,131.954483 &#10;&#9;C204.496628,136.105057 208.662872,140.255646 212.986877,145.042297 &#10;&#9;C211.761642,148.117416 210.378616,150.556458 208.995605,152.995499 &#10;&#9;C202.826004,159.186890 196.656387,165.378265 190.009705,171.873184 &#10;&#9;C189.242538,172.381302 189.079300,172.660172 189.042908,173.013306 &#10;&#9;C184.793732,177.139435 180.544556,181.265549 175.841339,185.814240 &#10;&#9;C173.925262,187.824356 172.463242,189.411896 171.001221,190.999451 &#10;&#9;C170.730026,191.189194 170.458817,191.378937 169.832611,191.901566 &#10;&#9;C168.972290,192.803772 168.466965,193.373077 167.661819,194.079254 &#10;&#9;C165.562134,196.135056 163.762268,198.053970 161.706711,200.103516 &#10;&#9;C160.957062,200.807953 160.463120,201.381775 159.662048,202.094330 &#10;&#9;C156.839462,205.076584 154.323990,207.920074 151.808533,210.763580 &#10;&#9;C151.808533,210.763580 151.884644,210.862030 151.508179,210.900177 &#10;&#9;C149.407440,212.616364 147.683151,214.294403 145.958862,215.972443 &#10;z" style=""/>
  <path opacity="1.000000" stroke="none" d="&#10;M200.633560,131.930328 &#10;&#9;C196.660782,128.468781 192.991165,124.983078 189.175568,120.876495 &#10;&#9;C189.023239,119.833900 189.016907,119.412193 189.334717,118.950455 &#10;&#9;C190.119461,118.256561 190.580032,117.602699 191.453400,116.961273 &#10;&#9;C192.693695,116.922195 193.521210,116.870697 194.542175,116.903931 &#10;&#9;C194.973358,117.169319 195.112137,117.407600 195.120514,118.082672 &#10;&#9;C196.149292,119.262390 197.209534,120.062943 198.578766,120.931664 &#10;&#9;C199.912689,122.040222 200.937622,123.080612 201.954346,124.477692 &#10;&#9;C202.666580,126.529587 203.386993,128.224792 204.107407,129.919998 &#10;&#9;C203.050522,130.582062 201.993622,131.244125 200.633560,131.930328 &#10;z" style=""/>
  <path opacity="1.000000" stroke="none" d="&#10;M159.969177,201.955582 &#10;&#9;C160.463120,201.381775 160.957062,200.807953 162.080383,200.114868 &#10;&#9;C166.011200,199.323364 168.030869,197.539062 167.961670,193.942383 &#10;&#9;C168.466965,193.373077 168.972290,192.803772 169.750977,192.140701 &#10;&#9;C170.834671,193.571289 171.645004,195.095657 172.717361,196.804092 &#10;&#9;C171.217087,198.914337 169.454803,200.840515 167.071960,202.890106 &#10;&#9;C165.657990,203.350098 164.864563,203.686676 163.664490,204.016357 &#10;&#9;C162.173294,204.006393 161.088715,204.003357 160.004837,203.659531 &#10;&#9;C159.993408,202.864365 159.981293,202.409973 159.969177,201.955582 &#10;z" style=""/>
  <path opacity="1.000000" stroke="none" d="&#10;M204.440918,129.977890 &#10;&#9;C203.386993,128.224792 202.666580,126.529587 202.297974,124.462517 &#10;&#9;C207.092422,128.544540 211.702499,132.847488 215.908905,137.514313 &#10;&#9;C218.098557,139.943649 220.080124,140.489792 222.894196,138.905045 &#10;&#9;C223.018234,139.001892 223.257263,139.206650 223.257263,139.206650 &#10;&#9;C221.364853,143.345016 218.673706,142.813889 215.872528,140.318588 &#10;&#9;C212.107513,136.964691 208.467880,133.470032 204.440918,129.977890 &#10;z" style=""/>
  <path opacity="1.000000" stroke="none" d="&#10;M209.364716,152.998871 &#10;&#9;C210.378616,150.556458 211.761642,148.117416 213.220764,145.296265 &#10;&#9;C213.680542,144.930862 214.064224,144.947540 214.732361,145.315186 &#10;&#9;C215.024582,146.117584 215.032364,146.569031 215.040131,147.020477 &#10;&#9;C213.271362,149.014389 211.502609,151.008316 209.364716,152.998871 &#10;z" style=""/>
  <path opacity="1.000000" stroke="none" d="&#10;M171.374634,191.003204 &#10;&#9;C172.463242,189.411896 173.925262,187.824356 175.685928,186.107025 &#10;&#9;C174.572388,187.653824 173.160217,189.330399 171.374634,191.003204 &#10;z" style=""/>
  <path opacity="1.000000" stroke="none" d="&#10;M227.047119,135.041870 &#10;&#9;C226.073074,136.443939 224.973419,137.725235 223.565521,139.106598 &#10;&#9;C223.257263,139.206650 223.018234,139.001892 222.973389,138.587402 &#10;&#9;C224.176392,137.007843 225.424255,135.842758 226.672119,134.677673 &#10;&#9;C226.672134,134.677689 226.921509,134.921112 227.047119,135.041870 &#10;z" style=""/>
  <path opacity="1.000000" stroke="none" d="&#10;M215.404663,147.012909 &#10;&#9;C215.032364,146.569031 215.024582,146.117584 215.022247,145.327515 &#10;&#9;C216.176453,145.137604 217.325226,145.286331 218.474014,145.435074 &#10;&#9;C218.496521,145.732803 218.519043,146.030518 218.541565,146.328247 &#10;&#9;C217.617447,146.553955 216.693329,146.779648 215.404663,147.012909 &#10;z" style=""/>
  <path opacity="1.000000" stroke="none" d="&#10;M188.967865,181.714081 &#10;&#9;C188.430206,182.603409 187.729004,183.313416 186.673676,184.116882 &#10;&#9;C187.147781,183.318481 187.976028,182.426605 188.967865,181.714081 &#10;z" style=""/>
  <path opacity="1.000000" stroke="none" d="&#10;M178.525055,191.890198 &#10;&#9;C178.086639,192.829681 177.324554,193.782181 176.270691,194.516571 &#10;&#9;C175.991806,193.870789 176.004684,193.443130 176.017578,193.015457 &#10;&#9;C176.745514,192.644714 177.473450,192.273972 178.525055,191.890198 &#10;z" style=""/>
  <path opacity="1.000000" stroke="none" d="&#10;M175.730072,193.042694 &#10;&#9;C176.004684,193.443130 175.991806,193.870789 175.974701,194.618774 &#10;&#9;C175.743607,195.183273 175.516739,195.427460 175.032013,195.665680 &#10;&#9;C174.996948,194.796448 175.219772,193.933182 175.730072,193.042694 &#10;z" style=""/>
  <path opacity="1.000000" stroke="none" d="&#10;M189.261444,172.911407 &#10;&#9;C189.079300,172.660172 189.242538,172.381302 189.768585,172.098541 &#10;&#9;C189.929077,172.349487 189.754227,172.612534 189.261444,172.911407 &#10;z" style=""/>
  <path opacity="1.000000" stroke="none" d="&#10;M120.916115,28.324154 &#10;&#9;C122.349846,28.464073 123.617859,28.900312 124.941772,30.001129 &#10;&#9;C124.974236,31.080534 124.950806,31.495361 124.767937,32.012554 &#10;&#9;C124.539902,32.218002 124.390434,32.357048 124.417374,32.417637 &#10;&#9;C124.510513,32.627045 124.665115,32.809116 124.911530,33.057949 &#10;&#9;C125.026733,33.114300 125.271889,33.038860 125.271889,33.038860 &#10;&#9;C121.452827,36.973042 117.633759,40.907223 113.170715,44.984573 &#10;&#9;C111.694153,46.429680 110.861580,47.731617 110.029007,49.033554 &#10;&#9;C108.835007,50.224983 107.641006,51.416412 105.796677,52.757481 &#10;&#9;C103.873260,54.393238 102.600182,55.879356 101.327103,57.365475 &#10;&#9;C100.168510,58.556889 99.009911,59.748306 97.216774,61.039200 &#10;&#9;C95.704781,62.403622 94.827339,63.668568 93.949890,64.933510 &#10;&#9;C83.112251,75.822289 72.274612,86.711067 61.095337,97.614235 &#10;&#9;C59.361633,96.843872 57.969563,96.059113 56.277184,94.837311 &#10;&#9;C55.954693,94.201347 55.932522,94.002419 55.910347,93.803490 &#10;&#9;C59.406609,89.965370 62.902878,86.127251 67.008682,82.115784 &#10;&#9;C68.101158,81.357613 68.584091,80.772797 69.067032,80.187988 &#10;&#9;C69.913521,79.224495 70.760010,78.261009 72.076370,77.066269 &#10;&#9;C72.761978,76.668915 72.925606,76.461662 73.037125,76.213264 &#10;&#9;C84.533485,64.580368 96.029839,52.947464 108.196747,41.169468 &#10;&#9;C109.868744,39.936924 110.870178,38.849476 111.871620,37.762028 &#10;&#9;C114.831215,34.714844 117.790810,31.667658 120.916115,28.324154 &#10;z" style=""/>
  <path opacity="1.000000" stroke="none" d="&#10;M55.572693,93.868866 &#10;&#9;C55.932522,94.002419 55.954693,94.201347 55.988937,94.700264 &#10;&#9;C49.498283,101.649765 43.018368,108.321968 36.456112,114.912193 &#10;&#9;C35.828400,115.542587 34.687210,115.661690 33.426079,116.022728 &#10;&#9;C40.456856,108.662956 47.845947,101.298599 55.572693,93.868866 &#10;z" style=""/>
  <path opacity="1.000000" stroke="none" d="&#10;M32.509193,116.802521 &#10;&#9;C31.756620,118.120651 30.698938,119.527748 29.282043,120.946213 &#10;&#9;C29.028608,120.320419 29.134388,119.683273 29.357204,118.748497 &#10;&#9;C30.384192,117.931076 31.294138,117.411285 32.509193,116.802521 &#10;z" style=""/>
  <path opacity="1.000000" stroke="none" d="&#10;M111.558533,37.849480 &#10;&#9;C110.870178,38.849476 109.868744,39.936924 108.510063,41.045273 &#10;&#9;C109.183693,40.023090 110.214569,38.980015 111.558533,37.849480 &#10;z" style=""/>
  <path opacity="1.000000" stroke="none" d="&#10;M68.784698,80.254349 &#10;&#9;C68.584091,80.772797 68.101158,81.357613 67.307114,81.969620 &#10;&#9;C67.498123,81.438118 68.000244,80.879410 68.784698,80.254349 &#10;z" style=""/>
  <path opacity="1.000000" stroke="none" d="&#10;M72.822098,76.256279 &#10;&#9;C72.925606,76.461662 72.761978,76.668915 72.374985,76.935425 &#10;&#9;C72.192528,76.710480 72.326981,76.464966 72.822098,76.256279 &#10;z" style=""/>
  <path opacity="1.000000" stroke="none" d="&#10;M131.486389,239.098083 &#10;&#9;C135.153732,235.072174 139.153534,230.988373 143.506668,226.895813 &#10;&#9;C143.634827,227.400024 143.409637,227.913010 143.059784,228.680878 &#10;&#9;C139.229691,232.303909 135.524261,235.672043 131.486389,239.098083 &#10;z" style=""/>
  <path opacity="1.000000" stroke="none" d="&#10;M107.119324,221.985123 &#10;&#9;C109.712234,220.240784 110.931625,221.289688 112.099045,226.340149 &#10;&#9;C110.486435,225.235245 108.849541,223.779510 107.119324,221.985123 &#10;z" style=""/>
  <path opacity="1.000000" stroke="none" d="&#10;M125.994507,240.348114 &#10;&#9;C126.188393,240.248428 126.493492,240.378662 126.906960,240.742126 &#10;&#9;C126.712135,240.842896 126.408936,240.710449 125.994507,240.348114 &#10;z" style=""/>
  <path opacity="1.000000" stroke="none" d="&#10;M160.004150,204.000305 &#10;&#9;C161.088715,204.003357 162.173294,204.006393 163.543762,204.271927 &#10;&#9;C163.534988,205.014313 163.240311,205.494232 162.733185,206.107758 &#10;&#9;C162.549835,206.809082 162.578918,207.376770 162.608002,207.944458 &#10;&#9;C162.253189,208.292313 161.898376,208.640182 161.199493,208.821075 &#10;&#9;C160.532516,208.770508 160.209625,208.886902 159.520050,209.002167 &#10;&#9;C158.420029,208.992599 157.686722,208.984161 156.992935,208.645203 &#10;&#9;C158.023026,206.876556 159.013580,205.438431 160.004150,204.000305 &#10;z" style=""/>
  <path opacity="1.000000" stroke="none" d="&#10;M156.953400,208.975708 &#10;&#9;C157.686722,208.984161 158.420029,208.992599 159.601822,209.182678 &#10;&#9;C160.158691,209.607864 160.320969,209.807587 160.537094,209.963531 &#10;&#9;C159.702835,210.863190 158.868576,211.762848 157.702942,212.706253 &#10;&#9;C156.597488,212.016602 155.823425,211.283234 155.183777,210.019196 &#10;&#9;C155.863235,209.317596 156.408310,209.146652 156.953400,208.975708 &#10;z" style=""/>
  <path opacity="1.000000" stroke="none" d="&#10;M162.945633,205.974136 &#10;&#9;C163.240311,205.494232 163.534988,205.014313 163.950409,204.278839 &#10;&#9;C164.864563,203.686676 165.657990,203.350098 166.778656,203.057739 &#10;&#9;C166.020187,204.420593 164.934479,205.739212 163.444275,206.829147 &#10;&#9;C163.008392,206.391693 162.977005,206.182922 162.945633,205.974136 &#10;z" style=""/>
  <path opacity="1.000000" stroke="none" d="&#10;M162.733185,206.107758 &#10;&#9;C162.977005,206.182922 163.008392,206.391693 163.117157,206.909302 &#10;&#9;C163.194519,207.218109 162.980118,207.643524 162.794067,207.793991 &#10;&#9;C162.578918,207.376770 162.549835,206.809082 162.733185,206.107758 &#10;z" style=""/>
  <path opacity="1.000000" stroke="none" d="&#10;M160.732117,209.773041 &#10;&#9;C160.320969,209.807587 160.158691,209.607864 159.968506,209.183807 &#10;&#9;C160.209625,208.886902 160.532516,208.770508 160.936096,208.849411 &#10;&#9;C160.986893,209.223999 160.957001,209.403259 160.732117,209.773041 &#10;z" style=""/>
  <path opacity="1.000000" stroke="none" d="&#10;M25.748970,124.057655 &#10;&#9;C25.791903,124.259834 25.584507,124.532501 25.119986,124.867821 &#10;&#9;C25.074789,124.663033 25.286716,124.395584 25.748970,124.057655 &#10;z" style=""/>
  <path opacity="1.000000" stroke="none" d="&#10;M33.264675,138.420563 &#10;&#9;C25.360798,136.348801 24.210472,132.955399 29.361187,127.158623 &#10;&#9;C30.124918,126.299088 30.704529,125.278862 31.416924,124.370300 &#10;&#9;C34.510208,120.425270 36.699081,120.295776 40.306938,123.846634 &#10;&#9;C60.888462,144.102966 81.461960,164.367462 102.059937,184.607056 &#10;&#9;C102.985374,185.516388 104.121597,186.211212 105.576469,187.388504 &#10;&#9;C109.868217,193.357010 113.803238,194.566803 117.712990,190.737122 &#10;&#9;C132.175827,176.570511 146.448853,162.210114 161.729446,146.990005 &#10;&#9;C154.711609,140.287552 147.801285,134.107666 141.415558,127.426399 &#10;&#9;C137.775833,123.618217 132.072159,120.804260 132.979080,113.774925 &#10;&#9;C133.003143,113.355476 133.010773,113.187584 133.357986,112.997955 &#10;&#9;C134.372360,112.943687 135.047150,112.911156 135.721954,112.878616 &#10;&#9;C134.354462,115.638756 135.742065,117.455444 137.656906,119.337311 &#10;&#9;C145.724457,127.265923 153.610123,135.381317 161.752762,143.230835 &#10;&#9;C164.568939,145.945633 164.615173,147.950668 161.861374,150.678894 &#10;&#9;C147.090576,165.312515 132.434830,180.062210 117.707878,194.740250 &#10;&#9;C113.732239,198.702682 112.375084,198.680420 108.248726,194.573395 &#10;&#9;C85.965462,172.394638 63.703468,150.194504 41.451298,127.984558 &#10;&#9;C38.883736,125.421860 36.907043,121.976929 32.795353,126.554321 &#10;&#9;C27.963305,131.933655 27.698210,131.688889 32.383495,136.832382 &#10;&#9;C32.712975,137.194092 32.930119,137.658112 33.264675,138.420563 &#10;z" style=""/>
  <path opacity="1.000000" stroke="none" d="&#10;M136.039658,112.755943 &#10;&#9;C135.047150,112.911156 134.372360,112.943687 133.178955,113.073494 &#10;&#9;C132.589493,113.277748 132.435028,113.444237 132.461746,113.481773 &#10;&#9;C132.603668,113.681183 132.791031,113.848228 132.962662,114.026489 &#10;&#9;C132.072159,120.804260 137.775833,123.618217 141.415558,127.426399 &#10;&#9;C147.801285,134.107666 154.711609,140.287552 161.729446,146.990005 &#10;&#9;C146.448853,162.210114 132.175827,176.570511 117.712990,190.737122 &#10;&#9;C113.803238,194.566803 109.868217,193.357010 105.916199,187.425598 &#10;&#9;C106.450203,186.870102 107.061287,186.660095 108.130936,186.392120 &#10;&#9;C110.747032,186.976379 114.020531,188.842255 114.878609,188.059662 &#10;&#9;C119.949249,183.435181 124.458702,178.195343 129.477905,173.066681 &#10;&#9;C136.258926,166.739258 142.759354,160.548828 149.168594,154.265366 &#10;&#9;C156.605698,146.974228 156.389282,145.236862 148.341080,138.862823 &#10;&#9;C144.869003,136.113007 142.052780,135.763824 139.082397,139.423660 &#10;&#9;C137.203415,141.738739 135.022842,143.809036 132.622375,145.928040 &#10;&#9;C131.848526,144.584824 131.429871,143.302719 131.305695,141.843048 &#10;&#9;C132.065216,140.441925 132.530228,139.218338 133.128021,137.758514 &#10;&#9;C133.711761,137.231461 134.162674,136.940659 134.994095,136.743454 &#10;&#9;C136.867188,135.365082 139.381348,134.049301 139.635345,132.387970 &#10;&#9;C140.132843,129.134201 131.282104,120.876976 127.886467,121.090302 &#10;&#9;C126.081810,121.203674 124.133636,122.020630 122.621040,123.059746 &#10;&#9;C120.603600,124.445663 118.946808,126.356575 116.739059,128.029694 &#10;&#9;C115.549423,128.005295 114.755829,127.993225 114.113754,127.683098 &#10;&#9;C119.936806,121.652145 125.666100,115.974335 131.231583,110.140259 &#10;&#9;C132.355911,108.961670 132.860275,107.191666 133.650467,105.694328 &#10;&#9;C133.650467,105.694328 133.826065,105.858070 134.148315,105.842102 &#10;&#9;C135.211060,104.706833 135.951553,103.587532 136.692032,102.468231 &#10;&#9;C136.692032,102.468231 136.742111,102.181015 137.235001,102.097015 &#10;&#9;C138.616592,101.695801 139.484589,101.211723 140.398590,101.098305 &#10;&#9;C141.988205,100.901039 143.606232,100.932594 145.212341,100.868210 &#10;&#9;C144.808533,102.261566 144.404724,103.654915 143.690750,105.066284 &#10;&#9;C142.891983,105.639740 142.403366,106.195190 141.914764,106.750626 &#10;&#9;C140.062286,108.711510 138.209824,110.672386 136.039658,112.755943 &#10;z" style=""/>
  <path opacity="1.000000" stroke="none" d="&#10;M78.810150,183.752350 &#10;&#9;C77.825790,183.332947 76.891106,182.571564 75.936203,181.484894 &#10;&#9;C76.897255,181.909866 77.878540,182.660126 78.810150,183.752350 &#10;z" style=""/>
  <path opacity="1.000000" stroke="none" d="&#10;M142.268707,106.884766 &#10;&#9;C142.403366,106.195190 142.891983,105.639740 143.806000,105.282379 &#10;&#9;C144.445618,105.745300 144.717392,105.921234 145.046738,106.008278 &#10;&#9;C145.036301,106.206558 145.025864,106.404846 144.943497,106.892914 &#10;&#9;C144.121948,107.128098 143.372299,107.073494 142.268707,106.884766 &#10;z" style=""/>
  <path opacity="1.000000" stroke="none" d="&#10;M106.987373,127.018814 &#10;&#9;C102.828651,124.040062 98.669930,121.061310 94.606544,118.150841 &#10;&#9;C110.939804,100.853630 126.454506,84.423294 142.554550,67.373055 &#10;&#9;C146.728592,71.923935 149.728699,75.302544 152.862183,78.552551 &#10;&#9;C153.950684,79.681519 155.369446,80.492050 156.784927,82.059662 &#10;&#9;C155.002243,82.750702 153.071991,82.830116 151.141754,82.909523 &#10;&#9;C151.141754,82.909523 151.066864,82.932747 151.052490,82.536789 &#10;&#9;C147.357544,73.833107 142.934509,72.824699 136.568115,78.974747 &#10;&#9;C132.030136,83.358521 127.540245,87.801704 123.239082,92.414383 &#10;&#9;C122.129074,93.604774 121.810883,95.533524 121.119293,97.101196 &#10;&#9;C121.109627,97.079277 121.121254,97.097473 120.723473,97.063400 &#10;&#9;C117.351135,97.084923 116.754082,98.858841 117.184586,101.375420 &#10;&#9;C117.158958,101.673317 117.020035,101.902580 116.177277,102.058647 &#10;&#9;C110.806885,106.607056 105.729469,110.901543 101.419693,115.862854 &#10;&#9;C100.039635,117.451538 100.401779,120.995697 104.645874,120.703461 &#10;&#9;C104.783630,120.768181 105.005699,120.976364 104.994339,121.343460 &#10;&#9;C105.651108,123.479973 106.319244,125.249390 106.987373,127.018814 &#10;z" style=""/>
  <path opacity="1.000000" stroke="none" d="&#10;M121.128967,97.123108 &#10;&#9;C121.810883,95.533524 122.129074,93.604774 123.239082,92.414383 &#10;&#9;C127.540245,87.801704 132.030136,83.358521 136.568115,78.974747 &#10;&#9;C142.934509,72.824699 147.357544,73.833107 151.064453,82.499451 &#10;&#9;C149.227341,81.351021 147.363861,79.843956 144.961639,78.304260 &#10;&#9;C143.583878,78.363213 142.744858,78.454796 141.905823,78.546387 &#10;&#9;C141.026352,79.165642 140.146881,79.784889 138.792084,80.706390 &#10;&#9;C137.873764,81.662605 137.430756,82.316582 136.987762,82.970558 &#10;&#9;C132.951340,86.958595 128.914932,90.946640 124.502937,95.418640 &#10;&#9;C123.127892,96.309441 122.128433,96.716278 121.128967,97.123108 &#10;z" style=""/>
  <path opacity="1.000000" stroke="none" d="&#10;M106.991524,127.009468 &#10;&#9;C106.319244,125.249390 105.651108,123.479973 105.296928,121.253052 &#10;&#9;C105.799072,120.701065 105.987274,120.606567 106.175476,120.512070 &#10;&#9;C106.906715,121.255348 107.637955,121.998634 108.677452,123.249252 &#10;&#9;C110.298416,124.913300 111.467659,127.383919 113.498825,124.063133 &#10;&#9;C114.168335,123.272942 114.590874,122.641998 115.013412,122.011063 &#10;&#9;C115.343285,121.953987 115.612259,121.794334 115.941910,121.327026 &#10;&#9;C120.369118,117.200813 124.671417,113.276031 128.982361,109.360748 &#10;&#9;C130.309204,108.155663 131.659622,106.976532 133.324860,105.739922 &#10;&#9;C132.860275,107.191666 132.355911,108.961670 131.231583,110.140259 &#10;&#9;C125.666100,115.974335 119.936806,121.652145 113.722412,127.678711 &#10;&#9;C111.113350,127.651688 109.047134,127.331009 106.980919,127.010330 &#10;&#9;C106.980919,127.010330 106.995674,127.000122 106.991524,127.009468 &#10;z" style=""/>
  <path opacity="1.000000" stroke="none" d="&#10;M104.508118,120.638741 &#10;&#9;C100.401779,120.995697 100.039635,117.451538 101.419693,115.862854 &#10;&#9;C105.729469,110.901543 110.806885,106.607056 115.979355,102.119339 &#10;&#9;C112.884117,106.096672 109.396263,110.008751 105.508911,114.408638 &#10;&#9;C104.908989,116.810539 104.708557,118.724640 104.508118,120.638741 &#10;z" style=""/>
  <path opacity="1.000000" stroke="none" d="&#10;M121.119293,97.101196 &#10;&#9;C122.128433,96.716278 123.127892,96.309441 124.418846,95.745537 &#10;&#9;C124.069427,97.211670 123.428528,98.834862 122.787628,100.458054 &#10;&#9;C122.169991,100.034279 121.552353,99.610504 121.012833,98.503632 &#10;&#9;C121.101059,97.579506 121.111160,97.338493 121.121254,97.097473 &#10;&#9;C121.121254,97.097473 121.109627,97.079277 121.119293,97.101196 &#10;z" style=""/>
  <path opacity="1.000000" stroke="none" d="&#10;M129.047012,231.100067 &#10;&#9;C129.231964,231.156586 129.416901,231.213104 129.865051,231.396851 &#10;&#9;C129.375809,232.566544 128.623383,233.609009 127.870941,234.651474 &#10;&#9;C127.237488,233.674835 126.604034,232.698212 125.987762,231.357147 &#10;&#9;C126.153503,230.916122 126.302063,230.839523 126.999512,230.901245 &#10;&#9;C128.047943,231.059723 128.547485,231.079895 129.047012,231.100067 &#10;z" style=""/>
  <path opacity="1.000000" stroke="none" d="&#10;M120.723473,97.063400 &#10;&#9;C121.111160,97.338493 121.101059,97.579506 121.052292,98.180466 &#10;&#9;C119.945625,99.447884 118.877632,100.355362 117.497116,101.319122 &#10;&#9;C116.754082,98.858841 117.351135,97.084923 120.723473,97.063400 &#10;z" style=""/>
  <path opacity="1.000000" stroke="none" d="&#10;M104.645874,120.703461 &#10;&#9;C104.708557,118.724640 104.908989,116.810539 105.394241,114.722458 &#10;&#9;C105.822243,116.264565 105.965431,117.980652 106.142044,120.104401 &#10;&#9;C105.987274,120.606567 105.799072,120.701065 105.308289,120.885963 &#10;&#9;C105.005699,120.976364 104.783630,120.768181 104.645874,120.703461 &#10;z" style=""/>
  <path opacity="1.000000" stroke="none" d="&#10;M114.733719,121.870255 &#10;&#9;C114.590874,122.641998 114.168335,123.272942 113.173386,123.972092 &#10;&#9;C112.066605,123.694321 111.532227,123.348335 110.997841,123.002350 &#10;&#9;C112.149902,122.578049 113.301964,122.153755 114.733719,121.870255 &#10;z" style=""/>
  <path opacity="1.000000" stroke="none" d="&#10;M137.148926,83.223419 &#10;&#9;C137.430756,82.316582 137.873764,81.662605 138.639832,80.997192 &#10;&#9;C138.411957,81.815933 137.861008,82.646111 137.148926,83.223419 &#10;z" style=""/>
  <path opacity="1.000000" stroke="none" d="&#10;M110.647736,122.991470 &#10;&#9;C111.532227,123.348335 112.066605,123.694321 112.926422,124.131348 &#10;&#9;C111.467659,127.383919 110.298416,124.913300 108.945557,123.429359 &#10;&#9;C109.369476,123.061630 109.833549,123.021118 110.647736,122.991470 &#10;z" style=""/>
  <path opacity="1.000000" stroke="none" d="&#10;M129.125580,230.823334 &#10;&#9;C128.547485,231.079895 128.047943,231.059723 127.237335,230.821838 &#10;&#9;C127.736847,230.077957 128.547440,229.551788 129.694183,229.034088 &#10;&#9;C129.754929,229.543900 129.479538,230.045258 129.125580,230.823334 &#10;z" style=""/>
  <path opacity="1.000000" stroke="none" d="&#10;M142.063232,78.890770 &#10;&#9;C142.744858,78.454796 143.583878,78.363213 144.688812,78.361877 &#10;&#9;C144.965729,78.705711 144.976761,78.959305 145.007553,79.592896 &#10;&#9;C144.091736,79.726967 143.156189,79.481064 142.063232,78.890770 &#10;z" style=""/>
  <path opacity="1.000000" stroke="none" d="&#10;M129.156998,173.162567 &#10;&#9;C124.458702,178.195343 119.949249,183.435181 114.878609,188.059662 &#10;&#9;C114.020531,188.842255 110.747032,186.976379 108.311829,186.120895 &#10;&#9;C103.444183,181.177414 98.818306,176.481171 94.288124,171.694336 &#10;&#9;C93.072983,170.410370 92.149460,168.850403 91.156967,167.046936 &#10;&#9;C95.834534,170.759003 100.975517,174.388351 104.946594,179.020599 &#10;&#9;C112.519447,187.854309 113.638489,188.088364 121.367310,178.479187 &#10;&#9;C122.296188,177.470642 122.829773,176.867081 123.363365,176.263519 &#10;&#9;C124.476768,175.355042 125.590172,174.446564 127.149445,173.272858 &#10;&#9;C127.985283,172.927460 128.375244,172.847290 128.863495,172.865631 &#10;&#9;C128.961792,172.964142 129.156998,173.162567 129.156998,173.162567 &#10;z" style=""/>
  <path opacity="1.000000" stroke="none" d="&#10;M51.922493,106.285843 &#10;&#9;C50.405701,108.535698 48.523209,110.693657 46.305401,112.907974 &#10;&#9;C47.832321,110.707542 49.694561,108.450745 51.922493,106.285843 &#10;z" style=""/>
  <path opacity="1.000000" stroke="none" d="&#10;M43.216797,115.547668 &#10;&#9;C43.585503,116.178001 43.734581,116.689278 43.647881,117.703949 &#10;&#9;C42.981915,118.480598 42.551727,118.753845 42.121536,119.027092 &#10;&#9;C42.413414,117.827591 42.705296,116.628098 43.216797,115.547668 &#10;z" style=""/>
  <path opacity="1.000000" stroke="none" d="&#10;M54.258991,103.919098 &#10;&#9;C53.982536,104.655968 53.376534,105.403137 52.457031,106.168198 &#10;&#9;C52.738838,105.433853 53.334145,104.681625 54.258991,103.919098 &#10;z" style=""/>
  <path opacity="1.000000" stroke="none" d="&#10;M70.865021,145.922028 &#10;&#9;C71.361671,146.040451 71.904480,146.389404 72.208878,146.866669 &#10;&#9;C71.617371,146.714172 71.264275,146.433350 70.865021,145.922028 &#10;z" style=""/>
  <path opacity="1.000000" stroke="none" d="&#10;M62.991531,138.330750 &#10;&#9;C63.634857,138.475891 64.270615,138.943604 64.858330,139.739777 &#10;&#9;C64.201508,139.596573 63.592739,139.124939 62.991531,138.330750 &#10;z" style=""/>
  <path opacity="1.000000" stroke="none" d="&#10;M79.225822,155.202850 &#10;&#9;C79.874176,154.997299 80.431870,155.202545 80.835541,155.774628 &#10;&#9;C80.456322,156.412872 80.231110,156.684280 80.005890,156.955704 &#10;&#9;C79.715645,156.508362 79.425400,156.061005 79.225822,155.202850 &#10;z" style=""/>
  <path opacity="1.000000" stroke="none" d="&#10;M42.372459,119.329330 &#10;&#9;C42.551727,118.753845 42.981915,118.480598 43.645248,118.105331 &#10;&#9;C44.040466,118.443253 44.202541,118.883179 44.266968,119.521980 &#10;&#9;C43.654003,119.691086 43.138691,119.661324 42.372459,119.329330 &#10;z" style=""/>
  <path opacity="1.000000" stroke="none" d="&#10;M80.182243,157.226959 &#10;&#9;C80.231110,156.684280 80.456322,156.412872 80.925140,156.020966 &#10;&#9;C81.300941,156.255066 81.433136,156.609665 81.576538,157.238281 &#10;&#9;C81.178032,157.507599 80.768311,157.502914 80.182243,157.226959 &#10;z" style=""/>
  <path opacity="1.000000" stroke="none" d="&#10;M88.320847,163.136414 &#10;&#9;C88.588867,163.093643 88.755661,163.223846 88.976143,163.666763 &#10;&#9;C88.759766,163.756119 88.489700,163.532761 88.320847,163.136414 &#10;z" style=""/>
  <path opacity="1.000000" stroke="none" d="&#10;M57.066723,101.051804 &#10;&#9;C56.976124,100.934425 56.828285,100.773117 56.680443,100.611816 &#10;&#9;C56.781998,100.670052 56.883556,100.728294 57.040985,100.954552 &#10;&#9;C57.096863,101.122574 57.009480,101.007889 57.066723,101.051804 &#10;z" style=""/>
  <path opacity="1.000000" stroke="none" d="&#10;M156.992935,208.645203 &#10;&#9;C156.408310,209.146652 155.863235,209.317596 155.153519,209.730392 &#10;&#9;C154.153931,210.273666 153.318970,210.575073 152.146271,210.820038 &#10;&#9;C154.323990,207.920074 156.839462,205.076584 159.662048,202.094330 &#10;&#9;C159.981293,202.409973 159.993408,202.864365 160.004837,203.659531 &#10;&#9;C159.013580,205.438431 158.023026,206.876556 156.992935,208.645203 &#10;z" style=""/>
  <path opacity="1.000000" stroke="none" d="&#10;M137.419739,225.027985 &#10;&#9;C139.497360,222.438690 141.935898,219.837570 144.687424,217.120422 &#10;&#9;C144.523300,221.413696 141.639191,223.653992 137.419739,225.027985 &#10;z" style=""/>
  <path opacity="1.000000" stroke="none" d="&#10;M146.329086,215.983902 &#10;&#9;C147.683151,214.294403 149.407440,212.616364 151.450531,210.876770 &#10;&#9;C150.079330,212.541962 148.389328,214.268661 146.329086,215.983902 &#10;z" style=""/>
  <path opacity="1.000000" stroke="none" d="&#10;M133.426422,229.029968 &#10;&#9;C134.181427,227.781891 135.306320,226.523056 136.735657,225.161453 &#10;&#9;C135.958832,226.378845 134.877579,227.699020 133.426422,229.029968 &#10;z" style=""/>
  <path opacity="1.000000" stroke="none" d="&#10;M132.241913,229.913361 &#10;&#9;C132.062592,229.650452 132.238144,229.379837 132.786728,229.126816 &#10;&#9;C132.928223,229.377823 132.740555,229.631577 132.241913,229.913361 &#10;z" style=""/>
  <path opacity="1.000000" stroke="none" d="&#10;M145.370331,105.955338 &#10;&#9;C144.717392,105.921234 144.445618,105.745300 144.116165,105.264374 &#10;&#9;C144.404724,103.654915 144.808533,102.261566 145.212341,100.868210 &#10;&#9;C143.606232,100.932594 141.988205,100.901039 140.398590,101.098305 &#10;&#9;C139.484589,101.211723 138.616592,101.695801 137.343048,101.999161 &#10;&#9;C141.883484,95.373840 142.935730,95.268158 148.566177,100.963310 &#10;&#9;C149.836395,102.248138 150.976028,103.662071 152.235443,105.339378 &#10;&#9;C150.094711,105.742256 147.894333,105.822327 145.370331,105.955338 &#10;z" style=""/>
  <path opacity="1.000000" stroke="none" d="&#10;M136.369019,102.565994 &#10;&#9;C135.951553,103.587532 135.211060,104.706833 134.082764,105.741531 &#10;&#9;C134.478653,104.659203 135.262329,103.661476 136.369019,102.565994 &#10;z" style=""/>
  <path opacity="1.000000" stroke="none" d="&#10;M132.977539,145.989105 &#10;&#9;C135.022842,143.809036 137.203415,141.738739 139.082397,139.423660 &#10;&#9;C142.052780,135.763824 144.869003,136.113007 148.341080,138.862823 &#10;&#9;C156.389282,145.236862 156.605698,146.974228 149.168594,154.265366 &#10;&#9;C142.759354,160.548828 136.258926,166.739258 129.477905,173.066681 &#10;&#9;C129.156998,173.162567 128.961792,172.964142 128.926865,172.570404 &#10;&#9;C128.903870,171.774780 128.915802,171.372864 128.927734,170.970963 &#10;&#9;C135.849518,164.181519 142.771286,157.392075 150.163269,150.196457 &#10;&#9;C154.476929,146.770355 152.407654,145.087143 149.245560,143.651001 &#10;&#9;C145.312561,137.917664 144.571014,137.808136 139.800293,142.665131 &#10;&#9;C138.808533,143.621414 138.297501,144.239563 137.786484,144.857727 &#10;&#9;C136.547806,145.701004 135.309143,146.544296 133.605576,147.070374 &#10;&#9;C133.086288,146.498489 133.031906,146.243790 132.977539,145.989105 &#10;z" style=""/>
  <path opacity="1.000000" stroke="none" d="&#10;M121.948349,160.820770 &#10;&#9;C121.942261,160.024246 122.309967,159.294754 122.795074,158.279617 &#10;&#9;C123.633965,157.337357 124.355461,156.680756 125.368889,155.591888 &#10;&#9;C126.100334,154.761169 126.539848,154.362701 127.294754,153.880234 &#10;&#9;C128.715515,153.156296 129.820862,152.516342 130.926224,151.876404 &#10;&#9;C128.058197,154.880203 125.190170,157.884018 121.948349,160.820770 &#10;z" style=""/>
  <path opacity="1.000000" stroke="none" d="&#10;M105.228188,161.865875 &#10;&#9;C107.043724,162.864182 108.774246,164.239151 110.845871,166.042007 &#10;&#9;C111.459023,166.975327 111.731071,167.480759 112.003128,167.986191 &#10;&#9;C107.674690,168.510254 106.703835,165.024170 105.228188,161.865875 &#10;z" style=""/>
  <path opacity="1.000000" stroke="none" d="&#10;M69.273056,124.300705 &#10;&#9;C70.221573,125.242149 70.883652,126.044258 71.863113,126.922668 &#10;&#9;C72.258575,127.375816 72.336655,127.752663 72.459648,128.414505 &#10;&#9;C70.359818,126.996262 68.215080,125.293022 66.076004,123.229065 &#10;&#9;C67.049988,123.299355 68.018295,123.730362 69.273056,124.300705 &#10;z" style=""/>
  <path opacity="1.000000" stroke="none" d="&#10;M131.086090,151.597870 &#10;&#9;C129.820862,152.516342 128.715515,153.156296 127.280731,153.530930 &#10;&#9;C127.973549,151.856949 128.995789,150.448273 130.327393,148.909225 &#10;&#9;C131.482346,148.541550 132.327942,148.304245 133.173538,148.066956 &#10;&#9;C132.531021,149.151077 131.888489,150.235214 131.086090,151.597870 &#10;z" style=""/>
  <path opacity="1.000000" stroke="none" d="&#10;M133.269562,147.937592 &#10;&#9;C132.327942,148.304245 131.482346,148.541550 130.290298,148.559326 &#10;&#9;C129.298401,146.882950 128.652954,145.426117 128.277863,143.839630 &#10;&#9;C129.369217,143.146866 130.190201,142.583725 131.011200,142.020599 &#10;&#9;C131.429871,143.302719 131.848526,144.584824 132.622360,145.928024 &#10;&#9;C133.031906,146.243790 133.086288,146.498489 133.278671,147.121613 &#10;&#9;C133.416672,147.490067 133.365585,147.808212 133.269562,147.937592 &#10;z" style=""/>
  <path opacity="1.000000" stroke="none" d="&#10;M149.194366,144.058960 &#10;&#9;C152.407654,145.087143 154.476929,146.770355 150.315277,149.893173 &#10;&#9;C149.712433,148.153015 149.427795,146.309967 149.194366,144.058960 &#10;z" style=""/>
  <path opacity="1.000000" stroke="none" d="&#10;M124.927376,31.910189 &#10;&#9;C124.950806,31.495361 124.974236,31.080534 125.018974,30.355652 &#10;&#9;C126.371536,30.560884 127.702789,31.076174 129.089645,31.895901 &#10;&#9;C128.117279,32.493847 127.089302,32.787354 125.666611,33.059860 &#10;&#9;C125.271889,33.038860 125.026733,33.114300 124.977638,32.789177 &#10;&#9;C124.928162,32.279427 124.927773,32.094807 124.927376,31.910189 &#10;z" style=""/>
  <path opacity="1.000000" stroke="none" d="&#10;M101.647903,57.292374 &#10;&#9;C102.600182,55.879356 103.873260,54.393238 105.508080,52.907070 &#10;&#9;C104.569443,54.344437 103.269081,55.781853 101.647903,57.292374 &#10;z" style=""/>
  <path opacity="1.000000" stroke="none" d="&#10;M75.196167,131.931549 &#10;&#9;C76.793381,132.815231 78.321945,134.083160 79.913239,135.681915 &#10;&#9;C78.359825,134.780411 76.743675,133.548096 75.196167,131.931549 &#10;z" style=""/>
  <path opacity="1.000000" stroke="none" d="&#10;M112.335388,167.973267 &#10;&#9;C111.731071,167.480759 111.459023,166.975327 111.147614,166.182037 &#10;&#9;C112.272110,165.638916 113.435974,165.383667 114.896133,165.519165 &#10;&#9;C115.011902,166.522736 114.831367,167.135574 114.650833,167.748398 &#10;&#9;C113.989769,167.819046 113.328705,167.889694 112.335388,167.973267 &#10;z" style=""/>
  <path opacity="1.000000" stroke="none" d="&#10;M92.141731,149.036758 &#10;&#9;C93.562477,149.787903 94.931755,150.922348 96.385818,152.390137 &#10;&#9;C95.010490,151.622360 93.550377,150.521194 92.141731,149.036758 &#10;z" style=""/>
  <path opacity="1.000000" stroke="none" d="&#10;M84.210846,140.912766 &#10;&#9;C85.495346,141.443756 86.708382,142.368729 88.010788,143.615707 &#10;&#9;C86.779907,143.060715 85.459656,142.183731 84.210846,140.912766 &#10;z" style=""/>
  <path opacity="1.000000" stroke="none" d="&#10;M114.995270,167.814728 &#10;&#9;C114.831367,167.135574 115.011902,166.522736 115.254288,165.598206 &#10;&#9;C115.720085,165.186310 116.124023,165.086136 116.839981,165.021881 &#10;&#9;C116.547905,165.998886 115.943810,166.939972 114.995270,167.814728 &#10;z" style=""/>
  <path opacity="1.000000" stroke="none" d="&#10;M110.351616,48.954533 &#10;&#9;C110.861580,47.731617 111.694153,46.429680 112.904198,45.179005 &#10;&#9;C112.412521,46.445347 111.543373,47.660427 110.351616,48.954533 &#10;z" style=""/>
  <path opacity="1.000000" stroke="none" d="&#10;M117.457596,164.156311 &#10;&#9;C117.879715,163.129532 118.638840,162.066422 119.792702,161.060028 &#10;&#9;C119.389824,162.117798 118.592209,163.118881 117.457596,164.156311 &#10;z" style=""/>
  <path opacity="1.000000" stroke="none" d="&#10;M94.273285,64.870041 &#10;&#9;C94.827339,63.668568 95.704781,62.403622 96.956757,61.212257 &#10;&#9;C96.419754,62.459412 95.508217,63.632988 94.273285,64.870041 &#10;z" style=""/>
  <path opacity="1.000000" stroke="none" d="&#10;M132.807678,36.066849 &#10;&#9;C131.865280,35.309956 130.922897,34.553062 129.994141,33.444897 &#10;&#9;C130.007767,33.093624 129.966064,32.784145 130.230133,32.902020 &#10;&#9;C131.344086,33.645775 132.193970,34.271656 133.043869,34.897541 &#10;&#9;C133.043869,34.897541 133.045700,34.957924 133.007996,35.239624 &#10;&#9;C132.916092,35.703167 132.861893,35.885006 132.807678,36.066849 &#10;z" style=""/>
  <path opacity="1.000000" stroke="none" d="&#10;M89.068848,144.308243 &#10;&#9;C89.950089,144.576019 90.885094,145.161972 91.721161,146.130295 &#10;&#9;C90.789009,145.883911 89.955818,145.255173 89.068848,144.308243 &#10;z" style=""/>
  <path opacity="1.000000" stroke="none" d="&#10;M133.010040,36.286140 &#10;&#9;C132.861893,35.885006 132.916092,35.703167 133.037811,35.244553 &#10;&#9;C133.694183,35.489246 134.283051,36.010715 134.836166,36.866783 &#10;&#9;C134.271072,36.969398 133.741730,36.737419 133.010040,36.286140 &#10;z" style=""/>
  <path opacity="1.000000" stroke="none" d="&#10;M138.135742,144.874252 &#10;&#9;C138.297501,144.239563 138.808533,143.621414 139.634918,142.961182 &#10;&#9;C139.461853,143.576324 138.973419,144.233551 138.135742,144.874252 &#10;z" style=""/>
  <path opacity="1.000000" stroke="none" d="&#10;M122.993492,176.213196 &#10;&#9;C122.829773,176.867081 122.296188,177.470642 121.460938,178.157532 &#10;&#9;C121.647385,177.548187 122.135498,176.855515 122.993492,176.213196 &#10;z" style=""/>
  <path opacity="1.000000" stroke="none" d="&#10;M128.610474,171.010376 &#10;&#9;C128.915802,171.372864 128.903870,171.774780 128.828568,172.471893 &#10;&#9;C128.375244,172.847290 127.985283,172.927460 127.295975,173.000488 &#10;&#9;C127.428818,172.345520 127.861023,171.697662 128.610474,171.010376 &#10;z" style=""/>
  <path opacity="1.000000" stroke="none" d="&#10;M68.757675,108.100708 &#10;&#9;C68.823769,108.283119 68.662720,108.571213 68.266754,108.955170 &#10;&#9;C68.198067,108.769493 68.364304,108.487938 68.757675,108.100708 &#10;z" style=""/>
  <path opacity="1.000000" stroke="none" d="&#10;M76.764145,100.090912 &#10;&#9;C76.816124,100.275528 76.641617,100.548851 76.225662,100.890015 &#10;&#9;C76.069855,100.628143 76.254333,100.368721 76.764145,100.090912 &#10;z" style=""/>
  <path opacity="1.000000" stroke="none" d="&#10;M128.007507,143.969284 &#10;&#9;C128.652954,145.426117 129.298401,146.882950 129.980942,148.689697 &#10;&#9;C128.995789,150.448273 127.973549,151.856949 126.965332,153.614929 &#10;&#9;C126.539848,154.362701 126.100334,154.761169 125.381226,155.284821 &#10;&#9;C124.464241,154.171799 122.975990,152.554688 123.330658,151.758240 &#10;&#9;C125.302567,147.330048 122.573784,144.980225 119.889595,142.401047 &#10;&#9;C116.427628,139.074539 112.991325,135.712860 109.713188,132.208038 &#10;&#9;C108.543686,130.957672 107.868011,129.245407 106.973923,127.377151 &#10;&#9;C109.047134,127.331009 111.113350,127.651688 113.570908,127.976761 &#10;&#9;C114.755829,127.993225 115.549423,128.005295 116.670845,128.401001 &#10;&#9;C117.063988,130.933685 116.257843,133.896576 117.360283,135.077118 &#10;&#9;C120.492142,138.430801 124.403206,141.056808 128.007507,143.969284 &#10;z" style=""/>
  <path opacity="1.000000" stroke="none" d="&#10;M151.232269,83.230606 &#10;&#9;C153.071991,82.830116 155.002243,82.750702 157.011200,82.319321 &#10;&#9;C157.793991,81.986221 158.498032,82.005096 159.554169,82.027267 &#10;&#9;C159.906265,82.030556 159.974060,82.017921 159.973160,82.405792 &#10;&#9;C159.990509,83.505638 160.008759,84.217606 159.676331,84.952011 &#10;&#9;C158.959854,85.892845 158.019440,87.241158 158.328690,87.654518 &#10;&#9;C159.600769,89.354828 161.259918,90.763840 162.763718,92.292770 &#10;&#9;C171.514709,101.190002 180.262009,110.090858 189.010559,118.990486 &#10;&#9;C189.016907,119.412193 189.023239,119.833900 189.039825,120.570335 &#10;&#9;C179.361084,111.403908 169.656189,101.938904 159.992630,92.431885 &#10;&#9;C157.044220,89.531242 154.209549,86.514999 151.232269,83.230606 &#10;z" style=""/>
  <path opacity="1.000000" stroke="none" d="&#10;M133.033569,34.564152 &#10;&#9;C132.193970,34.271656 131.344086,33.645775 130.293915,32.759506 &#10;&#9;C131.070190,33.076336 132.046722,33.653549 133.033569,34.564152 &#10;z" style=""/>
  <path opacity="1.000000" stroke="none" d="&#10;M167.661835,194.079254 &#10;&#9;C168.030869,197.539062 166.011200,199.323364 162.336090,199.984238 &#10;&#9;C163.762268,198.053970 165.562134,196.135056 167.661835,194.079254 &#10;z" style=""/>
  <path opacity="1.000000" stroke="none" d="&#10;M160.027008,84.929581 &#10;&#9;C160.008759,84.217606 159.990509,83.505638 159.965500,82.438896 &#10;&#9;C171.370804,93.437729 182.782852,104.791336 194.271820,116.482071 &#10;&#9;C193.521210,116.870697 192.693695,116.922195 191.303955,116.665878 &#10;&#9;C189.476501,115.034157 188.225159,113.696632 186.943832,112.388504 &#10;&#9;C177.975037,103.232124 169.000031,94.081825 160.027008,84.929581 &#10;z" style=""/>
  <path opacity="1.000000" stroke="none" d="&#10;M159.676331,84.952011 &#10;&#9;C169.000031,94.081825 177.975037,103.232124 186.943832,112.388504 &#10;&#9;C188.225159,113.696632 189.476501,115.034157 190.891159,116.653458 &#10;&#9;C190.580032,117.602699 190.119461,118.256561 189.334717,118.950455 &#10;&#9;C180.262009,110.090858 171.514709,101.190002 162.763718,92.292770 &#10;&#9;C161.259918,90.763840 159.600769,89.354828 158.328690,87.654518 &#10;&#9;C158.019440,87.241158 158.959854,85.892845 159.676331,84.952011 &#10;z" style=""/>
  <path opacity="1.000000" stroke="none" d="&#10;M195.120514,118.082672 &#10;&#9;C196.143356,118.536934 197.134750,119.370354 198.197952,120.533630 &#10;&#9;C197.209534,120.062943 196.149292,119.262390 195.120514,118.082672 &#10;z" style=""/>
  <path opacity="1.000000" stroke="none" d="&#10;M124.767937,32.012554 &#10;&#9;C124.927773,32.094807 124.928162,32.279427 124.862427,32.732826 &#10;&#9;C124.665115,32.809116 124.510513,32.627045 124.417374,32.417637 &#10;&#9;C124.390434,32.357048 124.539902,32.218002 124.767937,32.012554 &#10;z" style=""/>
  <path opacity="1.000000" stroke="none" d="&#10;M132.979080,113.774925 &#10;&#9;C132.791031,113.848228 132.603668,113.681183 132.461746,113.481773 &#10;&#9;C132.435028,113.444237 132.589493,113.277748 132.839386,113.095230 &#10;&#9;C133.010773,113.187584 133.003143,113.355476 132.979080,113.774925 &#10;z" style=""/>
  <path opacity="1.000000" stroke="none" d="&#10;M134.994080,136.743439 &#10;&#9;C135.281479,134.588242 137.134094,131.727386 136.387192,130.620239 &#10;&#9;C134.426254,127.713493 131.234238,123.523003 128.715500,123.644142 &#10;&#9;C125.595993,123.794189 122.389923,127.519180 119.828629,130.266113 &#10;&#9;C119.156097,130.987396 120.510475,133.907883 121.346588,135.616547 &#10;&#9;C121.892731,136.732590 123.211540,137.456467 124.133400,138.405411 &#10;&#9;C126.957832,141.312790 129.687042,141.581772 132.661911,138.088684 &#10;&#9;C132.530228,139.218338 132.065216,140.441925 131.305695,141.843048 &#10;&#9;C130.190201,142.583725 129.369217,143.146866 128.277863,143.839630 &#10;&#9;C124.403206,141.056808 120.492142,138.430801 117.360283,135.077118 &#10;&#9;C116.257843,133.896576 117.063988,130.933685 117.066895,128.413300 &#10;&#9;C118.946808,126.356575 120.603600,124.445663 122.621040,123.059746 &#10;&#9;C124.133636,122.020630 126.081810,121.203674 127.886467,121.090302 &#10;&#9;C131.282104,120.876976 140.132843,129.134201 139.635345,132.387970 &#10;&#9;C139.381348,134.049301 136.867188,135.365082 134.994080,136.743439 &#10;z" style=""/>
</svg>